<?xml version="1.0" encoding="windows-1252" standalone="no"?>
<svg xmlns="http://www.w3.org/2000/svg" xmlns:xlink="http://www.w3.org/1999/xlink" contentStyleType="text/css" height="404px" preserveAspectRatio="none" style="width:448px;height:404px;background:#FFFFFF;" version="1.1" viewBox="0 0 448 404" width="448px" zoomAndPan="magnify"><defs/><g><!--cluster Rust ./lib/*--><g id="cluster_Rust ./lib/*"><path d="M263.5,22.5 L349.5,22.5 A3.75,3.75 0 0 1 352,25 L359,44.7969 L438.5,44.7969 A2.5,2.5 0 0 1 441,47.2969 L441,117 A2.5,2.5 0 0 1 438.5,119.5 L263.5,119.5 A2.5,2.5 0 0 1 261,117 L261,25 A2.5,2.5 0 0 1 263.5,22.5 " fill="none" style="stroke:#000000;stroke-width:1.5;"/><line style="stroke:#000000;stroke-width:1.5;" x1="261" x2="359" y1="44.7969" y2="44.7969"/><text fill="#000000" font-family="sans-serif" font-size="14" font-weight="bold" lengthAdjust="spacing" textLength="85" x="265" y="37.4951">Rust ./lib/*</text></g><!--cluster Rust, C ./c/*--><g id="cluster_Rust, C ./c/*"><path d="M27.5,6 L122.5,6 A3.75,3.75 0 0 1 125,8.5 L132,28.2969 L234.5,28.2969 A2.5,2.5 0 0 1 237,30.7969 L237,133.5 A2.5,2.5 0 0 1 234.5,136 L27.5,136 A2.5,2.5 0 0 1 25,133.5 L25,8.5 A2.5,2.5 0 0 1 27.5,6 " fill="none" style="stroke:#000000;stroke-width:1.5;"/><line style="stroke:#000000;stroke-width:1.5;" x1="25" x2="132" y1="28.2969" y2="28.2969"/><text fill="#000000" font-family="sans-serif" font-size="14" font-weight="bold" lengthAdjust="spacing" textLength="94" x="29" y="20.9951">Rust, C ./c/*</text></g><!--cluster Python ./python/*--><g id="cluster_Python ./python/*"><path d="M8.5,160 L150.5,160 A3.75,3.75 0 0 1 153,162.5 L160,182.2969 L253.5,182.2969 A2.5,2.5 0 0 1 256,184.7969 L256,394.5 A2.5,2.5 0 0 1 253.5,397 L8.5,397 A2.5,2.5 0 0 1 6,394.5 L6,162.5 A2.5,2.5 0 0 1 8.5,160 " fill="none" style="stroke:#000000;stroke-width:1.5;"/><line style="stroke:#000000;stroke-width:1.5;" x1="6" x2="160" y1="182.2969" y2="182.2969"/><text fill="#000000" font-family="sans-serif" font-size="14" font-weight="bold" lengthAdjust="spacing" textLength="141" x="10" y="174.9951">Python ./python/*</text></g><!--entity libhyperon--><g id="elem_libhyperon"><rect fill="#F1F1F1" height="46.2969" rx="2.5" ry="2.5" style="stroke:#181818;stroke-width:0.5;" width="147" x="277.5" y="57.5"/><rect fill="#F1F1F1" height="10" style="stroke:#181818;stroke-width:0.5;" width="15" x="404.5" y="62.5"/><rect fill="#F1F1F1" height="2" style="stroke:#181818;stroke-width:0.5;" width="4" x="402.5" y="64.5"/><rect fill="#F1F1F1" height="2" style="stroke:#181818;stroke-width:0.5;" width="4" x="402.5" y="68.5"/><text fill="#000000" font-family="sans-serif" font-size="14" lengthAdjust="spacing" textLength="107" x="292.5" y="90.4951">libhyperon.rlib</text></g><!--entity libhyperonc--><g id="elem_libhyperonc"><rect fill="#F1F1F1" height="78.8906" rx="2.5" ry="2.5" style="stroke:#181818;stroke-width:0.5;" width="179" x="41.5" y="41"/><rect fill="#F1F1F1" height="10" style="stroke:#181818;stroke-width:0.5;" width="15" x="200.5" y="46"/><rect fill="#F1F1F1" height="2" style="stroke:#181818;stroke-width:0.5;" width="4" x="198.5" y="48"/><rect fill="#F1F1F1" height="2" style="stroke:#181818;stroke-width:0.5;" width="4" x="198.5" y="52"/><text fill="#000000" font-family="sans-serif" font-size="14" lengthAdjust="spacing" textLength="107" x="56.5" y="73.9951">libhyperonc.so</text><text fill="#000000" font-family="sans-serif" font-size="14" lengthAdjust="spacing" textLength="91" x="56.5" y="90.292">libhyperon.a</text><text fill="#000000" font-family="sans-serif" font-size="14" lengthAdjust="spacing" textLength="139" x="56.5" y="106.5889">hyperon/hyperon.h</text></g><!--entity libhyperonpy--><g id="elem_libhyperonpy"><rect fill="#F1F1F1" height="62.5938" rx="2.5" ry="2.5" style="stroke:#181818;stroke-width:0.5;" width="218" x="22" y="195"/><rect fill="#F1F1F1" height="10" style="stroke:#181818;stroke-width:0.5;" width="15" x="220" y="200"/><rect fill="#F1F1F1" height="2" style="stroke:#181818;stroke-width:0.5;" width="4" x="218" y="202"/><rect fill="#F1F1F1" height="2" style="stroke:#181818;stroke-width:0.5;" width="4" x="218" y="206"/><text fill="#000000" font-family="sans-serif" font-size="14" lengthAdjust="spacing" textLength="117" x="37" y="227.9951">libhyperonpy.so</text><text fill="#000000" font-family="sans-serif" font-size="14" lengthAdjust="spacing" textLength="178" x="37" y="244.292">./python/libhyperon.cpp</text></g><!--entity hyperonpy--><g id="elem_hyperonpy"><rect fill="#F1F1F1" height="62.5938" rx="2.5" ry="2.5" style="stroke:#181818;stroke-width:0.5;" width="179" x="41.5" y="318"/><rect fill="#F1F1F1" height="10" style="stroke:#181818;stroke-width:0.5;" width="15" x="200.5" y="323"/><rect fill="#F1F1F1" height="2" style="stroke:#181818;stroke-width:0.5;" width="4" x="198.5" y="325"/><rect fill="#F1F1F1" height="2" style="stroke:#181818;stroke-width:0.5;" width="4" x="198.5" y="329"/><text fill="#000000" font-family="sans-serif" font-size="14" lengthAdjust="spacing" textLength="60" x="56.5" y="350.9951">hyperon</text><text fill="#000000" font-family="sans-serif" font-size="14" lengthAdjust="spacing" textLength="139" x="56.5" y="367.292">./python/hyperon/*</text></g><!--link libhyperonc to libhyperon--><g id="link_libhyperonc_libhyperon"><path d="M220.805,80.5 C237.858,80.5 254.911,80.5 271.964,80.5 " fill="none" id="libhyperonc-to-libhyperon" style="stroke:#181818;stroke-width:1.0;"/><polygon fill="#181818" points="277.257,80.5,268.257,76.5,272.257,80.5,268.257,84.5,277.257,80.5" style="stroke:#181818;stroke-width:1.0;"/></g><!--reverse link libhyperonc to libhyperonpy--><g id="link_libhyperonc_libhyperonpy"><path d="M131,125.094 C131,147.505 131,174.287 131,194.553 " fill="none" id="libhyperonc-backto-libhyperonpy" style="stroke:#181818;stroke-width:1.0;"/><polygon fill="#181818" points="131,120.089,127,129.089,131,125.089,135,129.089,131,120.089" style="stroke:#181818;stroke-width:1.0;"/></g><!--reverse link libhyperonpy to hyperonpy--><g id="link_libhyperonpy_hyperonpy"><path d="M131,263.314 C131,280.694 131,301.355 131,317.9764 " fill="none" id="libhyperonpy-backto-hyperonpy" style="stroke:#181818;stroke-width:1.0;"/><polygon fill="#181818" points="131,258.033,127,267.033,131,263.033,135,267.033,131,258.033" style="stroke:#181818;stroke-width:1.0;"/></g><!--SRC=[AqXCpavCJrLG2YejBb7Gqy_9JDBNKbAevb9GY0QoCoeBKeloy_IAWEnOXSHY1OGOLoqNLm6oRXq5Pw01oLYq9-iLvyVa8HcN69C7PUh3X3BGZ4z6CJ-WiYGZFmzeV06OWSMEWagm9N0LIBOb5nIW6LvG2T8CvI1fWZbA2wmUeHZe52INAUZQ8OS3ih4AkgKeaibSEAKAAW40]--></g></svg>