<?xml version="1.0" encoding="UTF-8" standalone="no"?>
<svg xmlns="http://www.w3.org/2000/svg" xmlns:xlink="http://www.w3.org/1999/xlink" contentStyleType="text/css" height="425px" preserveAspectRatio="none" style="width:448px;height:425px;background:#FFFFFF;" version="1.1" viewBox="0 0 448 425" width="448px" zoomAndPan="magnify"><defs/><g><rect height="26.2969" id="_title" style="stroke:#00000000;stroke-width:1.0;fill:none;" width="223" x="105.5" y="5"/><text fill="#000000" font-family="sans-serif" font-size="14" font-weight="bold" lengthAdjust="spacing" textLength="213" x="110.5" y="22.9951">Structure of the codebase</text><!--MD5=[bb89bda416e4d88dfbc22d42d98ad16a]
cluster Rust ./lib/*--><g id="cluster_Rust ./lib/*"><path d="M263.5,51.7969 L349.5,51.7969 A3.75,3.75 0 0 1 352,54.2969 L359,74.0938 L438.5,74.0938 A2.5,2.5 0 0 1 441,76.5938 L441,146.2969 A2.5,2.5 0 0 1 438.5,148.7969 L263.5,148.7969 A2.5,2.5 0 0 1 261,146.2969 L261,54.2969 A2.5,2.5 0 0 1 263.5,51.7969 " style="stroke:#000000;stroke-width:1.5;fill:none;"/><line style="stroke:#000000;stroke-width:1.5;fill:none;" x1="261" x2="359" y1="74.0938" y2="74.0938"/><text fill="#000000" font-family="sans-serif" font-size="14" font-weight="bold" lengthAdjust="spacing" textLength="85" x="265" y="66.792">Rust ./lib/*</text></g><!--MD5=[77f9429c4fc72cc3a98172e59b4fab2c]
cluster Rust, C ./c/*--><g id="cluster_Rust, C ./c/*"><path d="M27.5,43.2969 L122.5,43.2969 A3.75,3.75 0 0 1 125,45.7969 L132,65.5938 L234.5,65.5938 A2.5,2.5 0 0 1 237,68.0938 L237,154.7969 A2.5,2.5 0 0 1 234.5,157.2969 L27.5,157.2969 A2.5,2.5 0 0 1 25,154.7969 L25,45.7969 A2.5,2.5 0 0 1 27.5,43.2969 " style="stroke:#000000;stroke-width:1.5;fill:none;"/><line style="stroke:#000000;stroke-width:1.5;fill:none;" x1="25" x2="132" y1="65.5938" y2="65.5938"/><text fill="#000000" font-family="sans-serif" font-size="14" font-weight="bold" lengthAdjust="spacing" textLength="94" x="29" y="58.292">Rust, C ./c/*</text></g><!--MD5=[3c862412591c861bd35a7186ba59a8ed]
cluster Python ./python/*--><g id="cluster_Python ./python/*"><path d="M8.5,181.2969 L150.5,181.2969 A3.75,3.75 0 0 1 153,183.7969 L160,203.5938 L253.5,203.5938 A2.5,2.5 0 0 1 256,206.0938 L256,415.7969 A2.5,2.5 0 0 1 253.5,418.2969 L8.5,418.2969 A2.5,2.5 0 0 1 6,415.7969 L6,183.7969 A2.5,2.5 0 0 1 8.5,181.2969 " style="stroke:#000000;stroke-width:1.5;fill:none;"/><line style="stroke:#000000;stroke-width:1.5;fill:none;" x1="6" x2="160" y1="203.5938" y2="203.5938"/><text fill="#000000" font-family="sans-serif" font-size="14" font-weight="bold" lengthAdjust="spacing" textLength="141" x="10" y="196.292">Python ./python/*</text></g><!--MD5=[834a59e7cfa3e4fb726259acdc215d42]
entity libhyperon--><g id="elem_libhyperon"><rect fill="#F1F1F1" height="46.2969" rx="2.5" ry="2.5" style="stroke:#181818;stroke-width:0.5;" width="147" x="277.5" y="86.7969"/><rect fill="#F1F1F1" height="10" style="stroke:#181818;stroke-width:0.5;" width="15" x="404.5" y="91.7969"/><rect fill="#F1F1F1" height="2" style="stroke:#181818;stroke-width:0.5;" width="4" x="402.5" y="93.7969"/><rect fill="#F1F1F1" height="2" style="stroke:#181818;stroke-width:0.5;" width="4" x="402.5" y="97.7969"/><text fill="#000000" font-family="sans-serif" font-size="14" lengthAdjust="spacing" textLength="107" x="292.5" y="119.792">libhyperon.rlib</text></g><!--MD5=[7a08443dea552a0f8c363654b9858a17]
entity libhyperonc--><g id="elem_libhyperonc"><rect fill="#F1F1F1" height="62.5938" rx="2.5" ry="2.5" style="stroke:#181818;stroke-width:0.5;" width="179" x="41.5" y="78.2969"/><rect fill="#F1F1F1" height="10" style="stroke:#181818;stroke-width:0.5;" width="15" x="200.5" y="83.2969"/><rect fill="#F1F1F1" height="2" style="stroke:#181818;stroke-width:0.5;" width="4" x="198.5" y="85.2969"/><rect fill="#F1F1F1" height="2" style="stroke:#181818;stroke-width:0.5;" width="4" x="198.5" y="89.2969"/><text fill="#000000" font-family="sans-serif" font-size="14" lengthAdjust="spacing" textLength="107" x="56.5" y="111.292">libhyperonc.so</text><text fill="#000000" font-family="sans-serif" font-size="14" lengthAdjust="spacing" textLength="139" x="56.5" y="127.5889">hyperon/hyperon.h</text></g><!--MD5=[3fd669f74ff1f0a847c6e4cf507c7a87]
entity libhyperonpy--><g id="elem_libhyperonpy"><rect fill="#F1F1F1" height="62.5938" rx="2.5" ry="2.5" style="stroke:#181818;stroke-width:0.5;" width="218" x="22" y="216.2969"/><rect fill="#F1F1F1" height="10" style="stroke:#181818;stroke-width:0.5;" width="15" x="220" y="221.2969"/><rect fill="#F1F1F1" height="2" style="stroke:#181818;stroke-width:0.5;" width="4" x="218" y="223.2969"/><rect fill="#F1F1F1" height="2" style="stroke:#181818;stroke-width:0.5;" width="4" x="218" y="227.2969"/><text fill="#000000" font-family="sans-serif" font-size="14" lengthAdjust="spacing" textLength="117" x="37" y="249.292">libhyperonpy.so</text><text fill="#000000" font-family="sans-serif" font-size="14" lengthAdjust="spacing" textLength="178" x="37" y="265.5889">./python/libhyperon.cpp</text></g><!--MD5=[f6c6312a3fafa8e7e970089319d66c90]
entity hyperonpy--><g id="elem_hyperonpy"><rect fill="#F1F1F1" height="62.5938" rx="2.5" ry="2.5" style="stroke:#181818;stroke-width:0.5;" width="179" x="41.5" y="339.2969"/><rect fill="#F1F1F1" height="10" style="stroke:#181818;stroke-width:0.5;" width="15" x="200.5" y="344.2969"/><rect fill="#F1F1F1" height="2" style="stroke:#181818;stroke-width:0.5;" width="4" x="198.5" y="346.2969"/><rect fill="#F1F1F1" height="2" style="stroke:#181818;stroke-width:0.5;" width="4" x="198.5" y="350.2969"/><text fill="#000000" font-family="sans-serif" font-size="14" lengthAdjust="spacing" textLength="60" x="56.5" y="372.292">hyperon</text><text fill="#000000" font-family="sans-serif" font-size="14" lengthAdjust="spacing" textLength="139" x="56.5" y="388.5889">./python/hyperon/*</text></g><!--MD5=[d471532115256b5c2914b4adc147274c]
link libhyperonc to libhyperon--><g id="link_libhyperonc_libhyperon"><path d="M220.805,109.7969 C237.858,109.7969 254.911,109.7969 271.964,109.7969 " fill="none" id="libhyperonc-to-libhyperon" style="stroke:#181818;stroke-width:1.0;"/><polygon fill="#181818" points="277.257,109.7969,268.257,105.7969,272.257,109.7969,268.257,113.7969,277.257,109.7969" style="stroke:#181818;stroke-width:1.0;"/></g><!--MD5=[c41b5206f37a388e165cc2f7c87a4128]
reverse link libhyperonc to libhyperonpy--><g id="link_libhyperonc_libhyperonpy"><path d="M131,146.3919 C131,167.9729 131,195.2379 131,215.9069 " fill="none" id="libhyperonc-backto-libhyperonpy" style="stroke:#181818;stroke-width:1.0;"/><polygon fill="#181818" points="131,141.3179,127,150.3179,131,146.3179,135,150.3179,131,141.3179" style="stroke:#181818;stroke-width:1.0;"/></g><!--MD5=[8b654f5232e3823b4d7eb6aed286e3bb]
reverse link libhyperonpy to hyperonpy--><g id="link_libhyperonpy_hyperonpy"><path d="M131,284.6109 C131,301.9909 131,322.6519 131,339.2733 " fill="none" id="libhyperonpy-backto-hyperonpy" style="stroke:#181818;stroke-width:1.0;"/><polygon fill="#181818" points="131,279.3299,127,288.3299,131,284.3299,135,288.3299,131,279.3299" style="stroke:#181818;stroke-width:1.0;"/></g><!--MD5=[12ab3c3c270496de3320ebf726f8437c]
@startuml
title Structure of the codebase

package "Rust ./lib/*" {
  [libhyperon.rlib] as libhyperon
}

package "Rust, C ./c/*" {
  [libhyperonc.so\nhyperon/hyperon.h] as libhyperonc
}

package "Python ./python/*" {
  [libhyperonpy.so\n./python/libhyperon.cpp] as libhyperonpy
  [hyperon\n./python/hyperon/*] as hyperonpy
}

libhyperonc -> libhyperon
libhyperonpy -u-> libhyperonc
hyperonpy -u-> libhyperonpy
@enduml

PlantUML version 1.2022.7beta2(Unknown compile time)
(GPL source distribution)
Java Runtime: Java(TM) SE Runtime Environment
JVM: Java HotSpot(TM) 64-Bit Server VM
Default Encoding: UTF-8
Language: en
Country: US
--></g></svg>