<svg version="1.1" xmlns="http://www.w3.org/2000/svg" viewBox="0 0 1177.9980688825176 392.31422920968555" width="1177.9980688825176" height="392.31422920968555">
  <!-- svg-source:excalidraw -->
  
  <defs>
    <style class="style-fonts">
      @font-face {
        font-family: "Virgil";
        src: url("https://excalidraw.com/Virgil.woff2");
      }
      @font-face {
        font-family: "Cascadia";
        src: url("https://excalidraw.com/Cascadia.woff2");
      }
      @font-face {
        font-family: "Assistant";
        src: url("https://excalidraw.com/Assistant-Regular.woff2");
      }
    </style>
    
  </defs>
  <g transform="translate(469.1808500518182 10) rotate(0 101.9306640625 32.19999999999999)"><text x="0" y="0" font-family="Helvetica, Segoe UI Emoji" font-size="28px" fill="#000000" text-anchor="start" style="white-space: pre;" direction="ltr" dominant-baseline="text-before-edge"></text><text x="0" y="32.199999999999996" font-family="Helvetica, Segoe UI Emoji" font-size="28px" fill="#000000" text-anchor="start" style="white-space: pre;" direction="ltr" dominant-baseline="text-before-edge">import! Behavior</text></g><g stroke-linecap="round" transform="translate(10 108.38567042253084) rotate(0 144.4266227036809 36.495139157796416)"><path d="M0 0 C0 0, 0 0, 0 0 M0 0 C0 0, 0 0, 0 0 M0.13 12.04 C2.38 9.46, 4.63 6.87, 10.63 -0.03 M0.13 12.04 C2.29 9.56, 4.45 7.08, 10.63 -0.03 M0.27 24.08 C4.71 18.97, 9.15 13.86, 21.26 -0.07 M0.27 24.08 C5.31 18.28, 10.36 12.47, 21.26 -0.07 M-0.26 36.88 C7.86 27.55, 15.97 18.21, 31.89 -0.1 M-0.26 36.88 C8.62 26.66, 17.5 16.45, 31.89 -0.1 M-0.12 48.92 C9.91 37.38, 19.94 25.84, 42.52 -0.14 M-0.12 48.92 C13.2 33.6, 26.52 18.27, 42.52 -0.14 M0.01 60.96 C18.13 40.11, 36.26 19.26, 53.15 -0.17 M0.01 60.96 C13.83 45.06, 27.65 29.17, 53.15 -0.17 M0.14 73 C22.08 47.76, 44.03 22.52, 63.78 -0.21 M0.14 73 C14.78 56.16, 29.42 39.32, 63.78 -0.21 M10.77 72.97 C31.64 48.96, 52.51 24.95, 74.41 -0.24 M10.77 72.97 C24.79 56.84, 38.81 40.71, 74.41 -0.24 M21.4 72.93 C46.3 44.29, 71.2 15.65, 85.04 -0.28 M21.4 72.93 C34.35 58.04, 47.29 43.15, 85.04 -0.28 M32.03 72.9 C55.39 46.03, 78.74 19.17, 95.67 -0.31 M32.03 72.9 C45.65 57.23, 59.27 41.57, 95.67 -0.31 M42.66 72.86 C63.77 48.58, 84.87 24.3, 106.3 -0.34 M42.66 72.86 C57.7 55.57, 72.73 38.27, 106.3 -0.34 M53.29 72.83 C73.35 49.76, 93.4 26.69, 116.27 0.38 M53.29 72.83 C71.66 51.69, 90.03 30.56, 116.27 0.38 M63.92 72.79 C78.37 56.17, 92.83 39.54, 126.91 0.34 M63.92 72.79 C84.47 49.16, 105.01 25.53, 126.91 0.34 M74.55 72.76 C96.52 47.49, 118.48 22.23, 137.54 0.31 M74.55 72.76 C93.31 51.18, 112.08 29.59, 137.54 0.31 M85.18 72.72 C101.2 54.3, 117.21 35.88, 148.17 0.27 M85.18 72.72 C101.84 53.56, 118.5 34.4, 148.17 0.27 M95.81 72.69 C116.64 48.73, 137.47 24.77, 158.8 0.24 M95.81 72.69 C112.87 53.07, 129.92 33.46, 158.8 0.24 M105.79 73.41 C123.73 52.77, 141.67 32.13, 169.43 0.2 M105.79 73.41 C120.82 56.12, 135.85 38.83, 169.43 0.2 M116.42 73.38 C131.91 55.56, 147.39 37.74, 180.06 0.17 M116.42 73.38 C131.83 55.64, 147.25 37.91, 180.06 0.17 M127.05 73.34 C145.8 51.77, 164.55 30.2, 190.69 0.13 M127.05 73.34 C141.05 57.23, 155.06 41.12, 190.69 0.13 M137.68 73.31 C161.35 46.08, 185.02 18.85, 201.32 0.1 M137.68 73.31 C152.82 55.88, 167.97 38.46, 201.32 0.1 M148.31 73.27 C172.54 45.4, 196.76 17.53, 211.95 0.06 M148.31 73.27 C173.05 44.81, 197.79 16.34, 211.95 0.06 M158.94 73.24 C178.54 50.69, 198.13 28.15, 222.58 0.03 M158.94 73.24 C176.6 52.92, 194.26 32.61, 222.58 0.03 M169.57 73.2 C190.88 48.69, 212.18 24.18, 233.21 0 M169.57 73.2 C189.21 50.61, 208.85 28.01, 233.21 0 M180.2 73.17 C202.42 47.61, 224.63 22.05, 243.84 -0.04 M180.2 73.17 C203.99 45.8, 227.79 18.42, 243.84 -0.04 M190.83 73.13 C207.24 54.26, 223.64 35.38, 254.47 -0.07 M190.83 73.13 C212.44 48.27, 234.05 23.41, 254.47 -0.07 M201.46 73.1 C220.52 51.17, 239.58 29.25, 265.1 -0.11 M201.46 73.1 C222.72 48.64, 243.99 24.18, 265.1 -0.11 M212.09 73.06 C234.8 46.94, 257.51 20.82, 275.73 -0.14 M212.09 73.06 C227.08 55.82, 242.07 38.58, 275.73 -0.14 M222.72 73.03 C239.86 53.32, 256.99 33.6, 286.36 -0.18 M222.72 73.03 C245.56 46.76, 268.4 20.48, 286.36 -0.18 M233.35 73 C252.83 50.58, 272.31 28.17, 289.77 8.09 M233.35 73 C252.76 50.67, 272.17 28.34, 289.77 8.09 M243.98 72.96 C256.61 58.43, 269.24 43.9, 289.9 20.13 M243.98 72.96 C255.12 60.14, 266.26 47.32, 289.9 20.13 M254.61 72.93 C263.05 63.22, 271.49 53.51, 289.38 32.93 M254.61 72.93 C261.78 64.68, 268.95 56.42, 289.38 32.93 M265.24 72.89 C271.05 66.21, 276.86 59.52, 289.51 44.97 M265.24 72.89 C274.31 62.46, 283.37 52.03, 289.51 44.97 M275.87 72.86 C281.04 66.91, 286.21 60.97, 289.65 57.01 M275.87 72.86 C280.79 67.19, 285.72 61.53, 289.65 57.01 M286.5 72.82 C287.78 71.35, 289.07 69.87, 289.78 69.05 M286.5 72.82 C287.59 71.56, 288.69 70.31, 289.78 69.05" stroke="#ffffff" stroke-width="1" fill="none"></path><path d="M0 0 C98.74 0, 197.47 0, 288.85 0 M0 0 C87.69 0, 175.38 0, 288.85 0 M288.85 0 C288.85 16.7, 288.85 33.4, 288.85 72.99 M288.85 0 C288.85 23.37, 288.85 46.74, 288.85 72.99 M288.85 72.99 C187.69 72.99, 86.54 72.99, 0 72.99 M288.85 72.99 C184.4 72.99, 79.95 72.99, 0 72.99 M0 72.99 C0 52.22, 0 31.45, 0 0 M0 72.99 C0 45.34, 0 17.69, 0 0" stroke="#000000" stroke-width="2" fill="none"></path></g><g transform="translate(52.295777388336774 121.26492973713349) rotate(0 92.2021484375 12)"><text x="92.2021484375" y="0" font-family="Cascadia, Segoe UI Emoji" font-size="20px" fill="#000000" text-anchor="middle" style="white-space: pre;" direction="ltr" dominant-baseline="text-before-edge">Resolve Module Name</text></g><g stroke-linecap="round" transform="translate(434.5748662857184 107.28108963645093) rotate(0 144.4266227036809 37.70860802349466)"><path d="M0 0 C0 0, 0 0, 0 0 M0 0 C0 0, 0 0, 0 0 M0.13 12.04 C3.14 8.58, 6.14 5.13, 10.63 -0.03 M0.13 12.04 C2.62 9.18, 5.11 6.32, 10.63 -0.03 M0.27 24.08 C6.06 17.42, 11.85 10.76, 21.26 -0.07 M0.27 24.08 C5.12 18.5, 9.97 12.92, 21.26 -0.07 M-0.26 36.88 C12.38 22.35, 25.01 7.81, 31.89 -0.1 M-0.26 36.88 C6.83 28.73, 13.91 20.57, 31.89 -0.1 M-0.12 48.92 C9.41 37.95, 18.94 26.99, 42.52 -0.14 M-0.12 48.92 C13.94 32.74, 28.01 16.56, 42.52 -0.14 M0.01 60.96 C11.17 48.12, 22.33 35.28, 53.15 -0.17 M0.01 60.96 C11.77 47.43, 23.53 33.91, 53.15 -0.17 M0.14 73 C23.31 46.35, 46.48 19.69, 63.78 -0.21 M0.14 73 C24.41 45.08, 48.68 17.17, 63.78 -0.21 M8.15 75.98 C33.26 47.09, 58.38 18.2, 74.41 -0.24 M8.15 75.98 C21.98 60.07, 35.82 44.15, 74.41 -0.24 M18.78 75.95 C41.46 49.86, 64.13 23.77, 85.04 -0.28 M18.78 75.95 C38.78 52.94, 58.79 29.92, 85.04 -0.28 M29.41 75.92 C45.83 57.03, 62.24 38.14, 95.67 -0.31 M29.41 75.92 C52.35 49.53, 75.29 23.14, 95.67 -0.31 M40.04 75.88 C60.5 52.34, 80.96 28.8, 106.3 -0.34 M40.04 75.88 C53.4 60.51, 66.76 45.14, 106.3 -0.34 M50.67 75.85 C68.4 55.45, 86.12 35.06, 116.27 0.38 M50.67 75.85 C76.28 46.38, 101.9 16.92, 116.27 0.38 M61.3 75.81 C82.35 51.59, 103.41 27.37, 126.91 0.34 M61.3 75.81 C86.51 46.81, 111.72 17.81, 126.91 0.34 M71.93 75.78 C85.48 60.18, 99.04 44.59, 137.54 0.31 M71.93 75.78 C91.09 53.73, 110.26 31.68, 137.54 0.31 M82.56 75.74 C105 49.93, 127.43 24.12, 148.17 0.27 M82.56 75.74 C105.35 49.52, 128.14 23.3, 148.17 0.27 M93.19 75.71 C114.41 51.29, 135.64 26.88, 158.8 0.24 M93.19 75.71 C119.15 45.84, 145.12 15.97, 158.8 0.24 M103.82 75.67 C119.67 57.44, 135.53 39.2, 169.43 0.2 M103.82 75.67 C128.9 46.82, 153.99 17.96, 169.43 0.2 M114.45 75.64 C140.27 45.93, 166.09 16.23, 180.06 0.17 M114.45 75.64 C130.16 57.56, 145.87 39.49, 180.06 0.17 M125.08 75.6 C151.04 45.74, 177 15.87, 190.69 0.13 M125.08 75.6 C149.63 47.37, 174.17 19.13, 190.69 0.13 M135.71 75.57 C155.12 53.24, 174.54 30.9, 201.32 0.1 M135.71 75.57 C159.02 48.76, 182.33 21.94, 201.32 0.1 M146.34 75.54 C165.13 53.92, 183.91 32.31, 211.95 0.06 M146.34 75.54 C159.57 60.32, 172.79 45.11, 211.95 0.06 M156.97 75.5 C171.12 59.22, 185.28 42.94, 222.58 0.03 M156.97 75.5 C174.61 55.21, 192.24 34.93, 222.58 0.03 M167.6 75.47 C187.41 52.68, 207.22 29.89, 233.21 0 M167.6 75.47 C189.73 50.01, 211.86 24.56, 233.21 0 M178.23 75.43 C194.27 56.98, 210.32 38.52, 243.84 -0.04 M178.23 75.43 C197.88 52.83, 217.53 30.23, 243.84 -0.04 M188.86 75.4 C210.98 49.95, 233.1 24.51, 254.47 -0.07 M188.86 75.4 C205.1 56.72, 221.34 38.04, 254.47 -0.07 M198.83 76.12 C224.02 47.15, 249.2 18.17, 265.1 -0.11 M198.83 76.12 C222.72 48.64, 246.61 21.16, 265.1 -0.11 M209.46 76.08 C235.49 46.14, 261.52 16.2, 275.73 -0.14 M209.46 76.08 C235.46 46.18, 261.46 16.27, 275.73 -0.14 M220.09 76.05 C241.72 51.17, 263.35 26.29, 286.36 -0.18 M220.09 76.05 C243.87 48.7, 267.65 21.35, 286.36 -0.18 M230.72 76.01 C252.93 50.47, 275.13 24.93, 289.77 8.09 M230.72 76.01 C244.04 60.69, 257.36 45.38, 289.77 8.09 M241.35 75.98 C255.61 59.58, 269.87 43.18, 289.9 20.13 M241.35 75.98 C260.54 53.91, 279.72 31.85, 289.9 20.13 M251.98 75.95 C263.21 63.03, 274.44 50.11, 289.38 32.93 M251.98 75.95 C266.75 58.97, 281.51 41.99, 289.38 32.93 M262.61 75.91 C273.33 63.58, 284.05 51.25, 289.51 44.97 M262.61 75.91 C272.4 64.66, 282.18 53.4, 289.51 44.97 M273.24 75.88 C277.92 70.5, 282.59 65.12, 289.65 57.01 M273.24 75.88 C278.84 69.44, 284.44 63, 289.65 57.01 M283.87 75.84 C285.43 74.05, 286.99 72.26, 289.78 69.05 M283.87 75.84 C285.96 73.44, 288.04 71.05, 289.78 69.05" stroke="#ffffff" stroke-width="1" fill="none"></path><path d="M0 0 C97.58 0, 195.16 0, 288.85 0 M0 0 C113.95 0, 227.89 0, 288.85 0 M288.85 0 C288.85 27.88, 288.85 55.76, 288.85 75.42 M288.85 0 C288.85 16.02, 288.85 32.05, 288.85 75.42 M288.85 75.42 C198.73 75.42, 108.61 75.42, 0 75.42 M288.85 75.42 C174.66 75.42, 60.47 75.42, 0 75.42 M0 75.42 C0 48.65, 0 21.88, 0 0 M0 75.42 C0 53.18, 0 30.95, 0 0" stroke="#000000" stroke-width="2" fill="none"></path></g><g transform="translate(514.9175186740556 119.89896533547105) rotate(0 54.1552734375 12)"><text x="54.1552734375" y="0" font-family="Cascadia, Segoe UI Emoji" font-size="20px" fill="#000000" text-anchor="middle" style="white-space: pre;" direction="ltr" dominant-baseline="text-before-edge">Load Module</text></g><g stroke-linecap="round" transform="translate(858.7397388445722 107.18042691536493) rotate(0 144.4266227036809 36.49383354533094)"><path d="M0 0 C0 0, 0 0, 0 0 M0 0 C0 0, 0 0, 0 0 M0.13 12.04 C2.45 9.37, 4.77 6.71, 10.63 -0.03 M0.13 12.04 C3.97 7.63, 7.81 3.21, 10.63 -0.03 M0.27 24.08 C6.62 16.77, 12.98 9.45, 21.26 -0.07 M0.27 24.08 C7.92 15.28, 15.58 6.47, 21.26 -0.07 M-0.26 36.88 C12.59 22.1, 25.44 7.32, 31.89 -0.1 M-0.26 36.88 C6.89 28.65, 14.05 20.42, 31.89 -0.1 M-0.12 48.92 C9.06 38.36, 18.24 27.8, 42.52 -0.14 M-0.12 48.92 C9.84 37.45, 19.81 25.99, 42.52 -0.14 M0.01 60.96 C12.16 46.98, 24.31 33, 53.15 -0.17 M0.01 60.96 C11.93 47.24, 23.86 33.53, 53.15 -0.17 M0.14 73 C24.36 45.14, 48.59 17.27, 63.78 -0.21 M0.14 73 C16.99 53.62, 33.84 34.24, 63.78 -0.21 M10.77 72.97 C33.79 46.49, 56.81 20.01, 74.41 -0.24 M10.77 72.97 C35.06 45.03, 59.35 17.09, 74.41 -0.24 M21.4 72.93 C40.47 51, 59.53 29.07, 85.04 -0.28 M21.4 72.93 C38.66 53.08, 55.91 33.24, 85.04 -0.28 M32.03 72.9 C47.71 54.86, 63.39 36.82, 95.67 -0.31 M32.03 72.9 C45.45 57.47, 58.86 42.03, 95.67 -0.31 M42.66 72.86 C59.62 53.35, 76.58 33.84, 106.3 -0.34 M42.66 72.86 C66.37 45.6, 90.07 18.33, 106.3 -0.34 M53.29 72.83 C73.69 49.36, 94.1 25.89, 116.27 0.38 M53.29 72.83 C74.36 48.59, 95.44 24.35, 116.27 0.38 M63.92 72.79 C87.21 46.01, 110.49 19.23, 126.91 0.34 M63.92 72.79 C88.78 44.2, 113.64 15.6, 126.91 0.34 M74.55 72.76 C89 56.14, 103.45 39.51, 137.54 0.31 M74.55 72.76 C92.31 52.33, 110.07 31.9, 137.54 0.31 M85.18 72.72 C103.51 51.64, 121.83 30.56, 148.17 0.27 M85.18 72.72 C102.18 53.17, 119.17 33.62, 148.17 0.27 M95.81 72.69 C120.48 44.31, 145.15 15.93, 158.8 0.24 M95.81 72.69 C113.97 51.8, 132.13 30.92, 158.8 0.24 M105.79 73.41 C125.27 51, 144.74 28.59, 169.43 0.2 M105.79 73.41 C120.83 56.1, 135.87 38.8, 169.43 0.2 M116.42 73.38 C131.26 56.3, 146.11 39.22, 180.06 0.17 M116.42 73.38 C135.19 51.78, 153.96 30.19, 180.06 0.17 M127.05 73.34 C145.15 52.52, 163.25 31.69, 190.69 0.13 M127.05 73.34 C142.25 55.85, 157.46 38.36, 190.69 0.13 M137.68 73.31 C161.25 46.18, 184.83 19.06, 201.32 0.1 M137.68 73.31 C159.94 47.7, 182.2 22.09, 201.32 0.1 M148.31 73.27 C166.72 52.1, 185.13 30.92, 211.95 0.06 M148.31 73.27 C169.2 49.24, 190.1 25.2, 211.95 0.06 M158.94 73.24 C172.52 57.62, 186.1 42, 222.58 0.03 M158.94 73.24 C172.1 58.1, 185.26 42.96, 222.58 0.03 M169.57 73.2 C193.59 45.57, 217.61 17.94, 233.21 0 M169.57 73.2 C186.22 54.04, 202.88 34.88, 233.21 0 M180.2 73.17 C203.48 46.39, 226.75 19.61, 243.84 -0.04 M180.2 73.17 C200.96 49.29, 221.71 25.41, 243.84 -0.04 M190.83 73.13 C216.26 43.87, 241.7 14.61, 254.47 -0.07 M190.83 73.13 C210.08 50.99, 229.33 28.85, 254.47 -0.07 M201.46 73.1 C215.79 56.61, 230.12 40.12, 265.1 -0.11 M201.46 73.1 C218.93 53, 236.39 32.91, 265.1 -0.11 M212.09 73.06 C224.84 58.39, 237.6 43.72, 275.73 -0.14 M212.09 73.06 C226.11 56.94, 240.12 40.82, 275.73 -0.14 M222.72 73.03 C247.09 44.99, 271.47 16.95, 286.36 -0.18 M222.72 73.03 C243.37 49.28, 264.01 25.53, 286.36 -0.18 M233.35 73 C245.64 58.86, 257.93 44.72, 289.77 8.09 M233.35 73 C249.76 54.11, 266.18 35.23, 289.77 8.09 M243.98 72.96 C254.28 61.11, 264.58 49.27, 289.9 20.13 M243.98 72.96 C255.69 59.49, 267.41 46.01, 289.9 20.13 M254.61 72.93 C264.48 61.57, 274.35 50.22, 289.38 32.93 M254.61 72.93 C264.92 61.06, 275.23 49.2, 289.38 32.93 M265.24 72.89 C273.19 63.74, 281.15 54.59, 289.51 44.97 M265.24 72.89 C273.77 63.07, 282.31 53.25, 289.51 44.97 M275.87 72.86 C278.96 69.31, 282.05 65.75, 289.65 57.01 M275.87 72.86 C280.36 67.7, 284.84 62.54, 289.65 57.01 M286.5 72.82 C287.37 71.82, 288.24 70.82, 289.78 69.05 M286.5 72.82 C287.17 72.05, 287.85 71.27, 289.78 69.05" stroke="#ffffff" stroke-width="1" fill="none"></path><path d="M0 0 C110.44 0, 220.88 0, 288.85 0 M0 0 C112.41 0, 224.81 0, 288.85 0 M288.85 0 C288.85 26.81, 288.85 53.62, 288.85 72.99 M288.85 0 C288.85 27.57, 288.85 55.14, 288.85 72.99 M288.85 72.99 C230.31 72.99, 171.77 72.99, 0 72.99 M288.85 72.99 C176.17 72.99, 63.49 72.99, 0 72.99 M0 72.99 C0 56.05, 0 39.11, 0 0 M0 72.99 C0 47.44, 0 21.89, 0 0" stroke="#000000" stroke-width="2" fill="none"></path></g><g transform="translate(932.4124693579097 119.79830261438505) rotate(0 60.8251953125 12)"><text x="60.8251953125" y="0" font-family="Cascadia, Segoe UI Emoji" font-size="20px" fill="#000000" text-anchor="middle" style="white-space: pre;" direction="ltr" dominant-baseline="text-before-edge">Import Module</text></g><g transform="translate(258.6450470884654 363.9142292096855) rotate(0 97.83203125 9.200000000000003)"><text x="97.83203125" y="0" font-family="Helvetica, Segoe UI Emoji" font-size="16px" fill="#000000" text-anchor="middle" style="white-space: pre;" direction="ltr" dominant-baseline="text-before-edge">RunContext::load_module()</text></g><g stroke-linecap="round"><g transform="translate(299.853245407362 143.5092702072889) rotate(0 61.95049279764862 0.19635477351364727)"><path d="M0 0 C49.49 0.16, 98.98 0.31, 123.9 0.39 M0 0 C36.13 0.11, 72.26 0.23, 123.9 0.39" stroke="#000000" stroke-width="2" fill="none"></path></g><g transform="translate(299.853245407362 143.5092702072889) rotate(0 61.95049279764862 0.19635477351364727)"><path d="M123.9 0.39 L110.29 6.69 L110.33 -5.99 L123.9 0.39" stroke="none" stroke-width="0" fill="#000000" fill-rule="evenodd"></path><path d="M123.9 0.39 C118.46 2.91, 113.03 5.42, 110.29 6.69 M123.9 0.39 C119.93 2.23, 115.96 4.06, 110.29 6.69 M110.29 6.69 C110.3 3.25, 110.31 -0.2, 110.33 -5.99 M110.29 6.69 C110.3 2.95, 110.31 -0.8, 110.33 -5.99 M110.33 -5.99 C113.12 -4.68, 115.9 -3.37, 123.9 0.39 M110.33 -5.99 C113.45 -4.52, 116.57 -3.05, 123.9 0.39 M123.9 0.39 C123.9 0.39, 123.9 0.39, 123.9 0.39 M123.9 0.39 C123.9 0.39, 123.9 0.39, 123.9 0.39" stroke="#000000" stroke-width="2" fill="none"></path></g></g><mask></mask><g transform="translate(311.65964748968076 149.40613046787058) rotate(0 51.1484375 9.200000000000003)"><text x="51.1484375" y="0" font-family="Helvetica, Segoe UI Emoji" font-size="16px" fill="#000000" text-anchor="middle" style="white-space: pre;" direction="ltr" dominant-baseline="text-before-edge">ModuleLoader</text></g><g stroke-linecap="round"><g transform="translate(724.4281116930799 141.56366300570917) rotate(0 62.05362168703175 -0.03943826552958285)"><path d="M0 0 C26.3 -0.02, 52.6 -0.03, 124.11 -0.08 M0 0 C26.77 -0.02, 53.53 -0.03, 124.11 -0.08" stroke="#000000" stroke-width="2" fill="none"></path></g><g transform="translate(724.4281116930799 141.56366300570917) rotate(0 62.05362168703175 -0.03943826552958285)"><path d="M124.11 -0.08 L110.52 6.27 L110.51 -6.41 L124.11 -0.08" stroke="none" stroke-width="0" fill="#000000" fill-rule="evenodd"></path><path d="M124.11 -0.08 C121.23 1.27, 118.35 2.61, 110.52 6.27 M124.11 -0.08 C121.18 1.29, 118.25 2.66, 110.52 6.27 M110.52 6.27 C110.51 2.43, 110.51 -1.41, 110.51 -6.41 M110.52 6.27 C110.51 1.87, 110.51 -2.54, 110.51 -6.41 M110.51 -6.41 C115.15 -4.25, 119.79 -2.09, 124.11 -0.08 M110.51 -6.41 C115.27 -4.19, 120.04 -1.97, 124.11 -0.08 M124.11 -0.08 C124.11 -0.08, 124.11 -0.08, 124.11 -0.08 M124.11 -0.08 C124.11 -0.08, 124.11 -0.08, 124.11 -0.08" stroke="#000000" stroke-width="2" fill="none"></path></g></g><mask></mask><g transform="translate(753.9263358051212 146.97688767078375) rotate(0 32.91015625 9.200000000000003)"><text x="32.91015625" y="0" font-family="Helvetica, Segoe UI Emoji" font-size="16px" fill="#000000" text-anchor="middle" style="white-space: pre;" direction="ltr" dominant-baseline="text-before-edge">ModuleId</text></g><g stroke-linecap="round"><g transform="translate(277.9526098483127 212.8927729281395) rotate(0 233.46364521421083 -0.47345706157237544)"><path d="M0 0 C132.39 -0.27, 264.79 -0.54, 466.93 -0.95" stroke="#000000" stroke-width="2.5" fill="none" stroke-dasharray="1.5 8"></path></g></g><mask></mask><g stroke-linecap="round"><g transform="translate(272.5255140436959 212.69648463751327) rotate(0 -0.21050004977257686 -14.921201402653125)"><path d="M0 0 C-0.13 -9.31, -0.26 -18.62, -0.42 -29.84" stroke="#000000" stroke-width="2.5" fill="none" stroke-dasharray="1.5 8"></path></g></g><mask></mask><g stroke-linecap="round"><g transform="translate(745.8038311091009 214.10781907235014) rotate(0 -0.1668925934266099 -35.7152994560913)"><path d="M0 0 C-0.07 -15.03, -0.14 -30.05, -0.33 -71.43" stroke="#000000" stroke-width="2.5" fill="none" stroke-dasharray="1.5 8"></path></g></g><mask></mask><g transform="translate(467.004320702428 293.18653350941076) rotate(0 106.734375 9.2)"><text x="106.734375" y="0" font-family="Helvetica, Segoe UI Emoji" font-size="16px" fill="#000000" text-anchor="middle" style="white-space: pre;" direction="ltr" dominant-baseline="text-before-edge">Metta::load_module_at_path()</text></g><g stroke-linecap="round"><g transform="translate(734.6527122924945 283.04722624866423) rotate(0 -153.8832934636331 -1.5429176837390628)"><path d="M0 0 C-106.03 -1.06, -212.06 -2.13, -307.77 -3.09 M0 0 C-102.9 -1.03, -205.8 -2.06, -307.77 -3.09" stroke="#000000" stroke-width="4" fill="none"></path></g><g transform="translate(734.6527122924945 283.04722624866423) rotate(0 -153.8832934636331 -1.5429176837390628)"><path d="M-0.15 15 C-0.1 9.83, -0.05 4.66, 0 0 M-0.15 15 C-0.1 9.98, -0.05 4.97, 0 0" stroke="#000000" stroke-width="4" fill="none"></path></g><g transform="translate(734.6527122924945 283.04722624866423) rotate(0 -153.8832934636331 -1.5429176837390628)"><path d="M0.15 -15 C0.1 -9.83, 0.05 -4.66, 0 0 M0.15 -15 C0.1 -9.98, 0.05 -4.97, 0 0" stroke="#000000" stroke-width="4" fill="none"></path></g><g transform="translate(734.6527122924945 283.04722624866423) rotate(0 -153.8832934636331 -1.5429176837390628)"><path d="M-307.62 -18.09 C-307.67 -12.92, -307.72 -7.75, -307.77 -3.09 M-307.62 -18.09 C-307.67 -13.07, -307.72 -8.06, -307.77 -3.09" stroke="#000000" stroke-width="4" fill="none"></path></g><g transform="translate(734.6527122924945 283.04722624866423) rotate(0 -153.8832934636331 -1.5429176837390628)"><path d="M-307.92 11.91 C-307.87 6.75, -307.81 1.58, -307.77 -3.09 M-307.92 11.91 C-307.87 6.9, -307.82 1.88, -307.77 -3.09" stroke="#000000" stroke-width="4" fill="none"></path></g></g><mask></mask><g stroke-linecap="round"><g transform="translate(734.8113442070469 349.2922770041743) rotate(0 -358.66084027485965 -0.649748196126609)"><path d="M0 0 C-241.17 -0.44, -482.35 -0.87, -717.32 -1.3 M0 0 C-182.16 -0.33, -364.33 -0.66, -717.32 -1.3" stroke="#000000" stroke-width="4" fill="none"></path></g><g transform="translate(734.8113442070469 349.2922770041743) rotate(0 -358.66084027485965 -0.649748196126609)"><path d="M-0.03 15 C-0.02 9.96, -0.01 4.91, 0 0 M-0.03 15 C-0.02 11.19, -0.01 7.38, 0 0" stroke="#000000" stroke-width="4" fill="none"></path></g><g transform="translate(734.8113442070469 349.2922770041743) rotate(0 -358.66084027485965 -0.649748196126609)"><path d="M0.03 -15 C0.02 -9.96, 0.01 -4.91, 0 0 M0.03 -15 C0.02 -11.19, 0.01 -7.38, 0 0" stroke="#000000" stroke-width="4" fill="none"></path></g><g transform="translate(734.8113442070469 349.2922770041743) rotate(0 -358.66084027485965 -0.649748196126609)"><path d="M-717.29 -16.3 C-717.3 -11.26, -717.31 -6.21, -717.32 -1.3 M-717.29 -16.3 C-717.3 -12.49, -717.31 -8.68, -717.32 -1.3" stroke="#000000" stroke-width="4" fill="none"></path></g><g transform="translate(734.8113442070469 349.2922770041743) rotate(0 -358.66084027485965 -0.649748196126609)"><path d="M-717.35 13.7 C-717.34 8.66, -717.33 3.61, -717.32 -1.3 M-717.35 13.7 C-717.34 9.89, -717.34 6.08, -717.32 -1.3" stroke="#000000" stroke-width="4" fill="none"></path></g></g><mask></mask><g transform="translate(830.9511938825176 299.18677698279373) rotate(0 168.5234375 27.6)"><text x="168.5234375" y="0" font-family="Helvetica, Segoe UI Emoji" font-size="16px" fill="#000000" text-anchor="middle" style="white-space: pre;" direction="ltr" dominant-baseline="text-before-edge">MettaMod::import_dependency_as()</text><text x="168.5234375" y="18.4" font-family="Helvetica, Segoe UI Emoji" font-size="16px" fill="#000000" text-anchor="middle" style="white-space: pre;" direction="ltr" dominant-baseline="text-before-edge">MettaMod::import_all_from_dependency()</text><text x="168.5234375" y="36.8" font-family="Helvetica, Segoe UI Emoji" font-size="16px" fill="#000000" text-anchor="middle" style="white-space: pre;" direction="ltr" dominant-baseline="text-before-edge">MettaMod::import_item_from_dependency_as()</text></g><g stroke-linecap="round"><g transform="translate(1156.3886479725834 289.0474697220472) rotate(0 -153.8832934636331 -1.5429176837390628)"><path d="M0 0 C-67.37 -0.68, -134.74 -1.35, -307.77 -3.09 M0 0 C-96.12 -0.96, -192.24 -1.93, -307.77 -3.09" stroke="#000000" stroke-width="4" fill="none"></path></g><g transform="translate(1156.3886479725834 289.0474697220472) rotate(0 -153.8832934636331 -1.5429176837390628)"><path d="M-0.15 15 C-0.12 11.72, -0.08 8.43, 0 0 M-0.15 15 C-0.1 10.31, -0.06 5.63, 0 0" stroke="#000000" stroke-width="4" fill="none"></path></g><g transform="translate(1156.3886479725834 289.0474697220472) rotate(0 -153.8832934636331 -1.5429176837390628)"><path d="M0.15 -15 C0.12 -11.72, 0.08 -8.43, 0 0 M0.15 -15 C0.1 -10.31, 0.06 -5.63, 0 0" stroke="#000000" stroke-width="4" fill="none"></path></g><g transform="translate(1156.3886479725834 289.0474697220472) rotate(0 -153.8832934636331 -1.5429176837390628)"><path d="M-307.62 -18.09 C-307.65 -14.8, -307.68 -11.52, -307.77 -3.09 M-307.62 -18.09 C-307.66 -13.4, -307.71 -8.72, -307.77 -3.09" stroke="#000000" stroke-width="4" fill="none"></path></g><g transform="translate(1156.3886479725834 289.0474697220472) rotate(0 -153.8832934636331 -1.5429176837390628)"><path d="M-307.92 11.91 C-307.88 8.63, -307.85 5.35, -307.77 -3.09 M-307.92 11.91 C-307.87 7.23, -307.82 2.54, -307.77 -3.09" stroke="#000000" stroke-width="4" fill="none"></path></g></g><mask></mask></svg>