<svg version="1.1" xmlns="http://www.w3.org/2000/svg" viewBox="0 0 804.8845503998991 756.4762525434569" width="804.8845503998991" height="756.4762525434569">
  <!-- svg-source:excalidraw -->
  
  <defs>
    <style class="style-fonts">
      @font-face {
        font-family: "Virgil";
        src: url("https://excalidraw.com/Virgil.woff2");
      }
      @font-face {
        font-family: "Cascadia";
        src: url("https://excalidraw.com/Cascadia.woff2");
      }
      @font-face {
        font-family: "Assistant";
        src: url("https://excalidraw.com/Assistant-Regular.woff2");
      }
    </style>
    
  </defs>
  <g stroke-linecap="round"><g transform="translate(64.15286800859394 10.892532891453754) rotate(0 104.97355732998079 -0.412714418448644)"><path d="M0 0 C80.51 -0.32, 161.02 -0.63, 209.95 -0.83 M0 0 C45.85 -0.18, 91.7 -0.36, 209.95 -0.83" stroke="#000000" stroke-width="2" fill="none"></path></g></g><mask></mask><g stroke-linecap="round"><g transform="translate(274.3013469235575 10) rotate(0 -26.44195628294065 42.975828571959624)"><path d="M0 0 C-18.72 30.42, -37.43 60.84, -52.88 85.95 M0 0 C-13.22 21.49, -26.44 42.98, -52.88 85.95" stroke="#000000" stroke-width="2" fill="none"></path></g></g><mask></mask><g stroke-linecap="round"><g transform="translate(64.07468933674306 11.409487275414733) rotate(0 -26.441956282940666 42.975828571959624)"><path d="M0 0 C-19.15 31.12, -38.3 62.25, -52.88 85.95 M0 0 C-19.04 30.95, -38.08 61.9, -52.88 85.95" stroke="#000000" stroke-width="2" fill="none"></path></g></g><mask></mask><g stroke-linecap="round"><g transform="translate(10.629044677463753 97.76869137759627) rotate(0 104.97355732998079 -0.412714418448644)"><path d="M0 0 C80.38 -0.32, 160.76 -0.63, 209.95 -0.83 M0 0 C78.62 -0.31, 157.23 -0.62, 209.95 -0.83" stroke="#000000" stroke-width="2" fill="none"></path></g></g><mask></mask><g transform="translate(61.07292285129188 21.77830810546874) rotate(0 75 19.200000000000003)"><text x="0" y="0" font-family="Cascadia, Segoe UI Emoji" font-size="16px" fill="#000000" text-anchor="start" style="white-space: pre;" direction="ltr" dominant-baseline="text-before-edge"></text><text x="0" y="19.2" font-family="Cascadia, Segoe UI Emoji" font-size="16px" fill="#000000" text-anchor="start" style="white-space: pre;" direction="ltr" dominant-baseline="text-before-edge">(import! module)</text></g><g stroke-linecap="round"><g transform="translate(407.3191246586996 149.90218819119673) rotate(0 -50.87120602356697 33.75090634538577)"><path d="M0 0 C-40.16 26.64, -80.31 53.28, -101.74 67.5 M0 0 C-38.46 25.52, -76.92 51.03, -101.74 67.5" stroke="#000000" stroke-width="2" fill="none"></path></g></g><mask></mask><g stroke-linecap="round"><g transform="translate(409.4172580803445 147.88165840813812) rotate(0 52.909923763181496 37.03705537875576)"><path d="M0 0 C32.82 22.97, 65.64 45.95, 105.82 74.07 M0 0 C33.19 23.24, 66.39 46.47, 105.82 74.07" stroke="#000000" stroke-width="2" fill="none"></path></g></g><mask></mask><g stroke-linecap="round"><g transform="translate(304.45985484251105 218.67203373380332) rotate(0 52.909923763181496 37.03705537875576)"><path d="M0 0 C35.52 24.87, 71.04 49.73, 105.82 74.07 M0 0 C26.44 18.51, 52.88 37.01, 105.82 74.07" stroke="#000000" stroke-width="2" fill="none"></path></g></g><mask></mask><g stroke-linecap="round"><g transform="translate(512.8959519603617 223.69913371260884) rotate(0 -50.87120602356697 33.75090634538577)"><path d="M0 0 C-31.2 20.7, -62.41 41.4, -101.74 67.5 M0 0 C-24.86 16.49, -49.72 32.99, -101.74 67.5" stroke="#000000" stroke-width="2" fill="none"></path></g></g><mask></mask><g transform="translate(351.06040954589844 191.00039774669932) rotate(0 60.9375 28.799999999999997)"><text x="60.9375" y="0" font-family="Cascadia, Segoe UI Emoji" font-size="16px" fill="#000000" text-anchor="middle" style="white-space: pre;" direction="ltr" dominant-baseline="text-before-edge">pkg-info</text><text x="60.9375" y="19.2" font-family="Cascadia, Segoe UI Emoji" font-size="16px" fill="#000000" text-anchor="middle" style="white-space: pre;" direction="ltr" dominant-baseline="text-before-edge">has entry for</text><text x="60.9375" y="38.4" font-family="Cascadia, Segoe UI Emoji" font-size="16px" fill="#000000" text-anchor="middle" style="white-space: pre;" direction="ltr" dominant-baseline="text-before-edge">module?</text></g><g stroke-linecap="round"><g transform="translate(230.34857265241874 217.92096354259775) rotate(0 38.0561747943961 0.25606536865234375)"><path d="M0 0 C29.83 0.2, 59.67 0.4, 76.11 0.51 M0 0 C20.64 0.14, 41.27 0.28, 76.11 0.51" stroke="#000000" stroke-width="2" fill="none"></path></g><g transform="translate(230.34857265241874 217.92096354259775) rotate(0 38.0561747943961 0.25606536865234375)"><path d="M76.11 0.51 L62.48 6.76 L62.56 -5.92 L76.11 0.51" stroke="none" stroke-width="0" fill="#000000" fill-rule="evenodd"></path><path d="M76.11 0.51 C70.77 2.96, 65.42 5.41, 62.48 6.76 M76.11 0.51 C72.41 2.21, 68.72 3.9, 62.48 6.76 M62.48 6.76 C62.49 4.15, 62.51 1.54, 62.56 -5.92 M62.48 6.76 C62.51 1.99, 62.54 -2.78, 62.56 -5.92 M62.56 -5.92 C66.55 -4.03, 70.54 -2.13, 76.11 0.51 M62.56 -5.92 C67.88 -3.39, 73.2 -0.87, 76.11 0.51 M76.11 0.51 C76.11 0.51, 76.11 0.51, 76.11 0.51 M76.11 0.51 C76.11 0.51, 76.11 0.51, 76.11 0.51" stroke="#000000" stroke-width="2" fill="none"></path></g></g><mask></mask><g stroke-linecap="round"><g transform="translate(655.9407219487389 152.92522013270082) rotate(0 -50.87120602356697 33.75090634538577)"><path d="M0 0 C-24.21 16.06, -48.42 32.13, -101.74 67.5 M0 0 C-33.57 22.27, -67.13 44.54, -101.74 67.5" stroke="#000000" stroke-width="2" fill="none"></path></g></g><mask></mask><g stroke-linecap="round"><g transform="translate(658.0388553703838 150.9046903496422) rotate(0 52.909923763181496 37.03705537875576)"><path d="M0 0 C22.27 15.59, 44.54 31.18, 105.82 74.07 M0 0 C34.88 24.42, 69.77 48.84, 105.82 74.07" stroke="#000000" stroke-width="2" fill="none"></path></g></g><mask></mask><g stroke-linecap="round"><g transform="translate(553.0814521325501 221.6950656753074) rotate(0 52.909923763181496 37.03705537875576)"><path d="M0 0 C34.64 24.24, 69.27 48.49, 105.82 74.07 M0 0 C23.23 16.26, 46.46 32.53, 105.82 74.07" stroke="#000000" stroke-width="2" fill="none"></path></g></g><mask></mask><g stroke-linecap="round"><g transform="translate(761.5175492504009 226.72216565411293) rotate(0 -50.87120602356697 33.75090634538577)"><path d="M0 0 C-30.93 20.52, -61.85 41.04, -101.74 67.5 M0 0 C-35.57 23.6, -71.14 47.2, -101.74 67.5" stroke="#000000" stroke-width="2" fill="none"></path></g></g><mask></mask><g transform="translate(594.9945068359375 204.0234296882034) rotate(0 65.625 28.799999999999997)"><text x="65.625" y="0" font-family="Cascadia, Segoe UI Emoji" font-size="16px" fill="#000000" text-anchor="middle" style="white-space: pre;" direction="ltr" dominant-baseline="text-before-edge">pkg-info entry</text><text x="65.625" y="19.2" font-family="Cascadia, Segoe UI Emoji" font-size="16px" fill="#000000" text-anchor="middle" style="white-space: pre;" direction="ltr" dominant-baseline="text-before-edge">has fs_path</text><text x="65.625" y="38.4" font-family="Cascadia, Segoe UI Emoji" font-size="16px" fill="#000000" text-anchor="middle" style="white-space: pre;" direction="ltr" dominant-baseline="text-before-edge">attrib?</text></g><g stroke-linecap="round"><g transform="translate(518.0292286189658 221.96618296398447) rotate(0 16.38961390096631 0.25606536865234375)"><path d="M0 0 C6.56 0.1, 13.12 0.21, 32.78 0.51 M0 0 C7.12 0.11, 14.24 0.22, 32.78 0.51" stroke="#000000" stroke-width="2" fill="none"></path></g><g transform="translate(518.0292286189658 221.96618296398447) rotate(0 16.38961390096631 0.25606536865234375)"><path d="M32.78 0.51 L19.09 6.64 L19.29 -6.04 L32.78 0.51" stroke="none" stroke-width="0" fill="#000000" fill-rule="evenodd"></path><path d="M32.78 0.51 C30.04 1.74, 27.3 2.96, 19.09 6.64 M32.78 0.51 C29.8 1.84, 26.83 3.17, 19.09 6.64 M19.09 6.64 C19.15 2.66, 19.21 -1.31, 19.29 -6.04 M19.09 6.64 C19.16 2.04, 19.23 -2.56, 19.29 -6.04 M19.29 -6.04 C24.19 -3.66, 29.09 -1.28, 32.78 0.51 M19.29 -6.04 C22.35 -4.55, 25.41 -3.07, 32.78 0.51 M32.78 0.51 C32.78 0.51, 32.78 0.51, 32.78 0.51 M32.78 0.51 C32.78 0.51, 32.78 0.51, 32.78 0.51" stroke="#000000" stroke-width="2" fill="none"></path></g></g><mask></mask><g transform="translate(512.1096038818359 193.9282786060743) rotate(0 14.0625 9.600000000000001)"><text x="0" y="0" font-family="Cascadia, Segoe UI Emoji" font-size="16px" fill="#000000" text-anchor="start" style="white-space: pre;" direction="ltr" dominant-baseline="text-before-edge">Yes</text></g><g transform="translate(418.4871063232422 294.31753031505866) rotate(0 9.375 9.600000000000001)"><text x="0" y="0" font-family="Cascadia, Segoe UI Emoji" font-size="16px" fill="#000000" text-anchor="start" style="white-space: pre;" direction="ltr" dominant-baseline="text-before-edge">No</text></g><g transform="translate(754.8442840576172 194.4588877369337) rotate(0 9.375 9.600000000000001)"><text x="0" y="0" font-family="Cascadia, Segoe UI Emoji" font-size="16px" fill="#000000" text-anchor="start" style="white-space: pre;" direction="ltr" dominant-baseline="text-before-edge">No</text></g><g stroke-linecap="round"><g transform="translate(766.3337283250071 226.24642199889576) rotate(0 13.977489601944399 -0.26737018884236363)"><path d="M0 0 C10.5 -0.2, 21.01 -0.4, 27.95 -0.53 M0 0 C8.27 -0.16, 16.54 -0.32, 27.95 -0.53" stroke="#000000" stroke-width="2" fill="none"></path></g></g><mask></mask><g stroke-linecap="round"><g transform="translate(794.8845503998991 227.73277172242956) rotate(0 -0.4316067368744143 223.1080928685592)"><path d="M0 0 C-0.27 141.32, -0.55 282.64, -0.86 446.22 M0 0 C-0.19 100.78, -0.39 201.56, -0.86 446.22" stroke="#000000" stroke-width="2" fill="none"></path></g></g><mask></mask><g transform="translate(667.3359832763672 295.7778879810743) rotate(0 14.0625 9.600000000000001)"><text x="0" y="0" font-family="Cascadia, Segoe UI Emoji" font-size="16px" fill="#000000" text-anchor="start" style="white-space: pre;" direction="ltr" dominant-baseline="text-before-edge">Yes</text></g><g stroke-linecap="round" transform="translate(303.4770050048828 337.8678782154493) rotate(0 108.23060607910156 44.639190673828125)"><path d="M0 0 C0 0, 0 0, 0 0 M0 0 C0 0, 0 0, 0 0 M0.13 12.04 C3.39 8.3, 6.64 4.55, 10.63 -0.03 M0.13 12.04 C4.27 7.28, 8.4 2.53, 10.63 -0.03 M0.27 24.08 C8.06 15.12, 15.85 6.16, 21.26 -0.07 M0.27 24.08 C7.13 16.18, 14 8.29, 21.26 -0.07 M-0.26 36.88 C9.13 26.08, 18.52 15.28, 31.89 -0.1 M-0.26 36.88 C10.36 24.66, 20.98 12.44, 31.89 -0.1 M-0.12 48.92 C11.19 35.91, 22.5 22.89, 42.52 -0.14 M-0.12 48.92 C14.98 31.55, 30.08 14.17, 42.52 -0.14 M0.01 60.96 C12.41 46.69, 24.82 32.42, 53.15 -0.17 M0.01 60.96 C19.41 38.64, 38.82 16.31, 53.15 -0.17 M0.14 73 C17.98 52.48, 35.82 31.96, 63.78 -0.21 M0.14 73 C19.63 50.58, 39.13 28.16, 63.78 -0.21 M0.28 85.04 C24.11 57.62, 47.95 30.2, 74.41 -0.24 M0.28 85.04 C26.66 54.69, 53.04 24.34, 74.41 -0.24 M6.97 89.53 C30 63.04, 53.04 36.54, 85.04 -0.28 M6.97 89.53 C29.38 63.76, 51.79 37.98, 85.04 -0.28 M17.6 89.5 C37.25 66.89, 56.9 44.29, 95.67 -0.31 M17.6 89.5 C43.14 60.12, 68.68 30.73, 95.67 -0.31 M28.23 89.47 C55.25 58.38, 82.27 27.3, 106.3 -0.34 M28.23 89.47 C52.99 60.98, 77.75 32.5, 106.3 -0.34 M38.86 89.43 C64.17 60.31, 89.49 31.19, 116.27 0.38 M38.86 89.43 C67.58 56.4, 96.29 23.36, 116.27 0.38 M49.49 89.4 C74.88 60.19, 100.27 30.98, 126.91 0.34 M49.49 89.4 C67.65 68.5, 85.82 47.6, 126.91 0.34 M60.12 89.36 C87.85 57.46, 115.58 25.56, 137.54 0.31 M60.12 89.36 C86.92 58.53, 113.72 27.7, 137.54 0.31 M70.75 89.33 C93.42 63.24, 116.1 37.16, 148.17 0.27 M70.75 89.33 C101.3 54.19, 131.85 19.04, 148.17 0.27 M81.38 89.29 C109.56 56.87, 137.74 24.45, 158.8 0.24 M81.38 89.29 C110.74 55.52, 140.1 21.74, 158.8 0.24 M92.01 89.26 C119.18 58, 146.35 26.75, 169.43 0.2 M92.01 89.26 C120.61 56.36, 149.2 23.47, 169.43 0.2 M102.64 89.22 C123.62 65.09, 144.6 40.96, 180.06 0.17 M102.64 89.22 C130.78 56.85, 158.92 24.48, 180.06 0.17 M113.27 89.19 C141.92 56.23, 170.57 23.27, 190.69 0.13 M113.27 89.19 C132.51 67.06, 151.75 44.92, 190.69 0.13 M123.24 89.91 C139.9 70.75, 156.56 51.58, 201.32 0.1 M123.24 89.91 C143.51 66.6, 163.77 43.29, 201.32 0.1 M133.87 89.88 C155.42 65.09, 176.96 40.31, 211.95 0.06 M133.87 89.88 C160.32 59.45, 186.77 29.03, 211.95 0.06 M144.5 89.84 C161.34 70.47, 178.18 51.1, 216.67 6.82 M144.5 89.84 C173.03 57.03, 201.55 24.22, 216.67 6.82 M155.13 89.81 C176.85 64.83, 198.56 39.85, 216.8 18.86 M155.13 89.81 C171.41 71.08, 187.69 52.36, 216.8 18.86 M165.76 89.77 C185.25 67.36, 204.73 44.95, 216.94 30.9 M165.76 89.77 C184.47 68.26, 203.17 46.74, 216.94 30.9 M176.4 89.74 C190.22 73.84, 204.04 57.93, 217.07 42.95 M176.4 89.74 C187.18 77.33, 197.97 64.92, 217.07 42.95 M187.03 89.7 C193.46 82.3, 199.9 74.89, 217.2 54.99 M187.03 89.7 C197.06 78.16, 207.1 66.61, 217.2 54.99 M197.66 89.67 C204.09 82.26, 210.53 74.86, 216.68 67.78 M197.66 89.67 C203.38 83.09, 209.1 76.5, 216.68 67.78 M208.29 89.63 C210.81 86.72, 213.34 83.81, 216.81 79.82 M208.29 89.63 C211.06 86.44, 213.84 83.24, 216.81 79.82" stroke="#ffffff" stroke-width="1" fill="none"></path><path d="M0 0 C63.32 0, 126.64 0, 216.46 0 M0 0 C47.09 0, 94.17 0, 216.46 0 M216.46 0 C216.46 19.07, 216.46 38.14, 216.46 89.28 M216.46 0 C216.46 19.85, 216.46 39.7, 216.46 89.28 M216.46 89.28 C169.05 89.28, 121.64 89.28, 0 89.28 M216.46 89.28 C168.99 89.28, 121.52 89.28, 0 89.28 M0 89.28 C0 61.79, 0 34.3, 0 0 M0 89.28 C0 56.63, 0 23.99, 0 0" stroke="#000000" stroke-width="2" fill="none"></path></g><g transform="translate(318.6430206298828 348.30951029552745) rotate(0 93.75 28.799999999999997)"><text x="93.75" y="0" font-family="Cascadia, Segoe UI Emoji" font-size="16px" fill="#000000" text-anchor="middle" style="white-space: pre;" direction="ltr" dominant-baseline="text-before-edge">Assume any module</text><text x="93.75" y="19.2" font-family="Cascadia, Segoe UI Emoji" font-size="16px" fill="#000000" text-anchor="middle" style="white-space: pre;" direction="ltr" dominant-baseline="text-before-edge">version will satisfy</text><text x="93.75" y="38.4" font-family="Cascadia, Segoe UI Emoji" font-size="16px" fill="#000000" text-anchor="middle" style="white-space: pre;" direction="ltr" dominant-baseline="text-before-edge">dependency</text></g><g stroke-linecap="round"><g transform="translate(408.9711078502596 290.5457059841932) rotate(0 0.04505633475343984 22.55802443960264)"><path d="M0 0 C0.03 15.09, 0.06 30.18, 0.09 45.12 M0 0 C0.03 12.63, 0.05 25.25, 0.09 45.12" stroke="#000000" stroke-width="2" fill="none"></path></g><g transform="translate(408.9711078502596 290.5457059841932) rotate(0 0.04505633475343984 22.55802443960264)"><path d="M0.09 45.12 L-6.28 31.53 L6.4 31.51 L0.09 45.12" stroke="none" stroke-width="0" fill="#000000" fill-rule="evenodd"></path><path d="M0.09 45.12 C-2.04 40.57, -4.17 36.03, -6.28 31.53 M0.09 45.12 C-1.69 41.32, -3.47 37.51, -6.28 31.53 M-6.28 31.53 C-2.22 31.53, 1.84 31.52, 6.4 31.51 M-6.28 31.53 C-3.11 31.53, 0.05 31.52, 6.4 31.51 M6.4 31.51 C4.26 36.12, 2.12 40.74, 0.09 45.12 M6.4 31.51 C4.6 35.38, 2.81 39.26, 0.09 45.12 M0.09 45.12 C0.09 45.12, 0.09 45.12, 0.09 45.12 M0.09 45.12 C0.09 45.12, 0.09 45.12, 0.09 45.12" stroke="#000000" stroke-width="2" fill="none"></path></g></g><mask></mask><g stroke-linecap="round" transform="translate(554.7835388183594 340.0486338306837) rotate(0 108.23060607910156 44.809783935546875)"><path d="M2.85 9.1 C2.85 9.1, 2.85 9.1, 2.85 9.1 M2.85 9.1 C2.85 9.1, 2.85 9.1, 2.85 9.1 M1.01 23.41 C5.8 17.9, 10.58 12.39, 20.69 0.76 M1.01 23.41 C5.67 18.05, 10.32 12.7, 20.69 0.76 M0.49 36.2 C10.45 24.75, 20.4 13.29, 31.98 -0.03 M0.49 36.2 C7.27 28.41, 14.04 20.61, 31.98 -0.03 M0.62 48.24 C9.92 37.55, 19.21 26.86, 42.61 -0.06 M0.62 48.24 C17.25 29.12, 33.87 10, 42.61 -0.06 M0.76 60.28 C17.26 41.29, 33.77 22.3, 53.24 -0.09 M0.76 60.28 C21.49 36.43, 42.22 12.58, 53.24 -0.09 M0.89 72.32 C21.94 48.1, 43 23.89, 63.87 -0.13 M0.89 72.32 C23.22 46.64, 45.54 20.95, 63.87 -0.13 M3.65 81.35 C22.11 60.1, 40.58 38.86, 74.5 -0.16 M3.65 81.35 C27.2 54.25, 50.75 27.16, 74.5 -0.16 M9.03 87.35 C29.93 63.3, 50.84 39.25, 85.13 -0.2 M9.03 87.35 C38.97 52.91, 68.91 18.46, 85.13 -0.2 M17.69 89.58 C34.72 69.99, 51.75 50.4, 95.76 -0.23 M17.69 89.58 C48.9 53.67, 80.12 17.77, 95.76 -0.23 M28.32 89.54 C55.6 58.16, 82.88 26.78, 105.74 0.49 M28.32 89.54 C51.67 62.68, 75.02 35.82, 105.74 0.49 M38.29 90.26 C55.32 70.68, 72.35 51.09, 116.37 0.45 M38.29 90.26 C63.88 60.84, 89.46 31.41, 116.37 0.45 M48.92 90.23 C79.72 54.81, 110.51 19.38, 127 0.42 M48.92 90.23 C70.47 65.45, 92.01 40.67, 127 0.42 M59.55 90.2 C87.55 57.99, 115.54 25.79, 137.63 0.38 M59.55 90.2 C83.3 62.87, 107.05 35.55, 137.63 0.38 M70.18 90.16 C89.31 68.16, 108.43 46.16, 148.26 0.35 M70.18 90.16 C87.43 70.32, 104.68 50.48, 148.26 0.35 M80.81 90.13 C104.61 62.75, 128.42 35.37, 158.89 0.32 M80.81 90.13 C102.32 65.39, 123.82 40.65, 158.89 0.32 M91.44 90.09 C112.17 66.25, 132.89 42.41, 169.52 0.28 M91.44 90.09 C110.88 67.73, 130.32 45.37, 169.52 0.28 M102.07 90.06 C132.48 55.08, 162.89 20.1, 180.15 0.25 M102.07 90.06 C121.22 68.04, 140.36 46.02, 180.15 0.25 M112.7 90.02 C131.01 68.97, 149.31 47.91, 190.78 0.21 M112.7 90.02 C142.41 55.85, 172.11 21.68, 190.78 0.21 M123.33 89.99 C147.5 62.19, 171.66 34.4, 200.75 0.93 M123.33 89.99 C152.37 56.59, 181.41 23.18, 200.75 0.93 M133.96 89.95 C152.5 68.64, 171.03 47.32, 208.76 3.92 M133.96 89.95 C152.17 69.01, 170.37 48.08, 208.76 3.92 M144.6 89.92 C161.26 70.75, 177.93 51.58, 214.14 9.92 M144.6 89.92 C164.39 67.15, 184.18 44.38, 214.14 9.92 M155.23 89.88 C168.69 74.4, 182.15 58.91, 216.89 18.94 M155.23 89.88 C178.26 63.38, 201.3 36.88, 216.89 18.94 M165.86 89.85 C181.52 71.83, 197.18 53.81, 217.03 30.98 M165.86 89.85 C183.82 69.19, 201.78 48.52, 217.03 30.98 M176.49 89.82 C191.79 72.21, 207.1 54.6, 217.16 43.02 M176.49 89.82 C189.28 75.09, 202.08 60.37, 217.16 43.02 M187.12 89.78 C196.35 79.16, 205.58 68.54, 216.64 55.82 M187.12 89.78 C193.3 82.67, 199.48 75.56, 216.64 55.82 M197.75 89.75 C204.77 81.67, 211.79 73.59, 216.77 67.86 M197.75 89.75 C203.8 82.78, 209.86 75.82, 216.77 67.86" stroke="#ffffff" stroke-width="1" fill="none"></path><path d="M22.4 0 C82.65 0, 142.89 0, 194.06 0 M22.4 0 C59.25 0, 96.1 0, 194.06 0 M194.06 0 C208.99 0, 216.46 7.47, 216.46 22.4 M194.06 0 C208.99 0, 216.46 7.47, 216.46 22.4 M216.46 22.4 C216.46 32.04, 216.46 41.68, 216.46 67.21 M216.46 22.4 C216.46 31.72, 216.46 41.04, 216.46 67.21 M216.46 67.21 C216.46 82.15, 208.99 89.62, 194.06 89.62 M216.46 67.21 C216.46 82.15, 208.99 89.62, 194.06 89.62 M194.06 89.62 C135.64 89.62, 77.23 89.62, 22.4 89.62 M194.06 89.62 C153.89 89.62, 113.72 89.62, 22.4 89.62 M22.4 89.62 C7.47 89.62, 0 82.15, 0 67.21 M22.4 89.62 C7.47 89.62, 0 82.15, 0 67.21 M0 67.21 C0 52.74, 0 38.26, 0 22.4 M0 67.21 C0 57.24, 0 47.26, 0 22.4 M0 22.4 C0 7.47, 7.47 0, 22.4 0 M0 22.4 C0 7.47, 7.47 0, 22.4 0" stroke="#000000" stroke-width="2" fill="none"></path></g><g transform="translate(563.4069061279297 346.3892893482618) rotate(0 98.4375 38.400000000000006)"><text x="98.4375" y="0" font-family="Cascadia, Segoe UI Emoji" font-size="16px" fill="#000000" text-anchor="middle" style="white-space: pre;" direction="ltr" dominant-baseline="text-before-edge">Load &amp; import module</text><text x="98.4375" y="19.2" font-family="Cascadia, Segoe UI Emoji" font-size="16px" fill="#000000" text-anchor="middle" style="white-space: pre;" direction="ltr" dominant-baseline="text-before-edge">at file-system path</text><text x="98.4375" y="38.4" font-family="Cascadia, Segoe UI Emoji" font-size="16px" fill="#000000" text-anchor="middle" style="white-space: pre;" direction="ltr" dominant-baseline="text-before-edge">with first successful</text><text x="98.4375" y="57.599999999999994" font-family="Cascadia, Segoe UI Emoji" font-size="16px" fill="#000000" text-anchor="middle" style="white-space: pre;" direction="ltr" dominant-baseline="text-before-edge">FsModuleFormat</text></g><g stroke-linecap="round"><g transform="translate(658.9556912271855 316.94770394298274) rotate(0 0.11566125245235526 10.869731820401839)"><path d="M0 0 C0.05 4.4, 0.09 8.8, 0.23 21.74 M0 0 C0.07 6.74, 0.14 13.48, 0.23 21.74" stroke="#000000" stroke-width="2" fill="none"></path></g><g transform="translate(658.9556912271855 316.94770394298274) rotate(0 0.11566125245235526 10.869731820401839)"><path d="M0.23 21.74 L-4.47 11.94 L4.72 11.84 L0.23 21.74" stroke="none" stroke-width="0" fill="#000000" fill-rule="evenodd"></path><path d="M0.23 21.74 C-0.72 19.76, -1.67 17.77, -4.47 11.94 M0.23 21.74 C-1.23 18.7, -2.68 15.66, -4.47 11.94 M-4.47 11.94 C-2.22 11.91, 0.02 11.89, 4.72 11.84 M-4.47 11.94 C-2.11 11.91, 0.25 11.89, 4.72 11.84 M4.72 11.84 C3.12 15.37, 1.52 18.9, 0.23 21.74 M4.72 11.84 C3.63 14.25, 2.53 16.67, 0.23 21.74 M0.23 21.74 C0.23 21.74, 0.23 21.74, 0.23 21.74 M0.23 21.74 C0.23 21.74, 0.23 21.74, 0.23 21.74" stroke="#000000" stroke-width="2" fill="none"></path></g></g><mask></mask><g stroke-linecap="round"><g transform="translate(655.1285954308037 603.6322962433387) rotate(0 -50.87120602356697 33.75090634538577)"><path d="M0 0 C-26.81 17.79, -53.62 35.57, -101.74 67.5 M0 0 C-24.9 16.52, -49.8 33.04, -101.74 67.5" stroke="#000000" stroke-width="2" fill="none"></path></g></g><mask></mask><g stroke-linecap="round"><g transform="translate(657.2267288524486 601.6117664602801) rotate(0 52.909923763181496 37.03705537875575)"><path d="M0 0 C23.67 16.57, 47.33 33.13, 105.82 74.07 M0 0 C34.23 23.96, 68.45 47.92, 105.82 74.07" stroke="#000000" stroke-width="2" fill="none"></path></g></g><mask></mask><g stroke-linecap="round"><g transform="translate(552.2693256146149 672.4021417859453) rotate(0 52.909923763181496 37.03705537875575)"><path d="M0 0 C25.04 17.53, 50.08 35.06, 105.82 74.07 M0 0 C39.29 27.5, 78.58 55, 105.82 74.07" stroke="#000000" stroke-width="2" fill="none"></path></g></g><mask></mask><g stroke-linecap="round"><g transform="translate(760.7054227324656 677.4292417647508) rotate(0 -50.87120602356697 33.75090634538577)"><path d="M0 0 C-35.38 23.47, -70.76 46.95, -101.74 67.5 M0 0 C-32.45 21.53, -64.9 43.06, -101.74 67.5" stroke="#000000" stroke-width="2" fill="none"></path></g></g><mask></mask><g transform="translate(599.8698803180023 633.7305057988414) rotate(0 60.9375 28.80000000000001)"><text x="60.9375" y="0" font-family="Cascadia, Segoe UI Emoji" font-size="16px" fill="#000000" text-anchor="middle" style="white-space: pre;" direction="ltr" dominant-baseline="text-before-edge"></text><text x="60.9375" y="19.2" font-family="Cascadia, Segoe UI Emoji" font-size="16px" fill="#000000" text-anchor="middle" style="white-space: pre;" direction="ltr" dominant-baseline="text-before-edge">bom entry has</text><text x="60.9375" y="38.4" font-family="Cascadia, Segoe UI Emoji" font-size="16px" fill="#000000" text-anchor="middle" style="white-space: pre;" direction="ltr" dominant-baseline="text-before-edge">git attrib?</text></g><g stroke-linecap="round" transform="translate(554.2972717285156 476.1059153248243) rotate(0 108.23060607910156 44.639190673828125)"><path d="M0 0 C0 0, 0 0, 0 0 M0 0 C0 0, 0 0, 0 0 M0.13 12.04 C2.35 9.49, 4.57 6.94, 10.63 -0.03 M0.13 12.04 C3.08 8.65, 6.03 5.25, 10.63 -0.03 M0.27 24.08 C7.79 15.43, 15.31 6.77, 21.26 -0.07 M0.27 24.08 C5.61 17.93, 10.95 11.79, 21.26 -0.07 M-0.26 36.88 C8.45 26.86, 17.16 16.85, 31.89 -0.1 M-0.26 36.88 C12.24 22.5, 24.74 8.12, 31.89 -0.1 M-0.12 48.92 C8.79 38.67, 17.7 28.42, 42.52 -0.14 M-0.12 48.92 C8.7 38.77, 17.53 28.61, 42.52 -0.14 M0.01 60.96 C11.6 47.62, 23.19 34.29, 53.15 -0.17 M0.01 60.96 C16.22 42.32, 32.42 23.67, 53.15 -0.17 M0.14 73 C18.52 51.86, 36.89 30.72, 63.78 -0.21 M0.14 73 C15.51 55.32, 30.87 37.65, 63.78 -0.21 M0.28 85.04 C16.24 66.68, 32.21 48.31, 74.41 -0.24 M0.28 85.04 C24.65 57, 49.03 28.96, 74.41 -0.24 M6.97 89.53 C34.76 57.56, 62.56 25.58, 85.04 -0.28 M6.97 89.53 C32.23 60.47, 57.49 31.42, 85.04 -0.28 M17.6 89.5 C40.39 63.29, 63.17 37.08, 95.67 -0.31 M17.6 89.5 C34.56 69.99, 51.52 50.48, 95.67 -0.31 M28.23 89.47 C58.38 54.78, 88.54 20.09, 106.3 -0.34 M28.23 89.47 C53.73 60.13, 79.24 30.79, 106.3 -0.34 M38.86 89.43 C57.77 67.68, 76.67 45.93, 116.27 0.38 M38.86 89.43 C60.92 64.05, 82.98 38.67, 116.27 0.38 M49.49 89.4 C70.55 65.17, 91.6 40.95, 126.91 0.34 M49.49 89.4 C75.19 59.83, 100.89 30.27, 126.91 0.34 M60.12 89.36 C86.15 59.42, 112.17 29.48, 137.54 0.31 M60.12 89.36 C83.71 62.23, 107.3 35.09, 137.54 0.31 M70.75 89.33 C95.77 60.55, 120.79 31.76, 148.17 0.27 M70.75 89.33 C96.17 60.08, 121.59 30.84, 148.17 0.27 M81.38 89.29 C112.24 53.79, 143.11 18.29, 158.8 0.24 M81.38 89.29 C97.39 70.88, 113.39 52.47, 158.8 0.24 M92.01 89.26 C120.41 56.59, 148.81 23.92, 169.43 0.2 M92.01 89.26 C116.22 61.4, 140.44 33.55, 169.43 0.2 M102.64 89.22 C128.17 59.85, 153.71 30.48, 180.06 0.17 M102.64 89.22 C132.01 55.44, 161.37 21.66, 180.06 0.17 M113.27 89.19 C132.4 67.18, 151.53 45.18, 190.69 0.13 M113.27 89.19 C143.44 54.48, 173.61 19.77, 190.69 0.13 M123.24 89.91 C154.08 54.44, 184.91 18.98, 201.32 0.1 M123.24 89.91 C152.01 56.82, 180.78 23.73, 201.32 0.1 M133.87 89.88 C159.28 60.65, 184.69 31.42, 211.95 0.06 M133.87 89.88 C155.09 65.47, 176.3 41.07, 211.95 0.06 M144.5 89.84 C168.06 62.74, 191.62 35.64, 216.67 6.82 M144.5 89.84 C171.78 58.46, 199.06 27.08, 216.67 6.82 M155.13 89.81 C178.6 62.82, 202.06 35.83, 216.8 18.86 M155.13 89.81 C178.5 62.93, 201.87 36.04, 216.8 18.86 M165.76 89.77 C177.24 76.58, 188.71 63.38, 216.94 30.9 M165.76 89.77 C184.68 68.02, 203.59 46.26, 216.94 30.9 M176.4 89.74 C188.92 75.33, 201.44 60.93, 217.07 42.95 M176.4 89.74 C190.2 73.86, 204.01 57.97, 217.07 42.95 M187.03 89.7 C194.72 80.86, 202.41 72.01, 217.2 54.99 M187.03 89.7 C197.97 77.11, 208.91 64.52, 217.2 54.99 M197.66 89.67 C201.85 84.84, 206.05 80.01, 216.68 67.78 M197.66 89.67 C203.15 83.34, 208.65 77.02, 216.68 67.78 M208.29 89.63 C211.29 86.17, 214.3 82.71, 216.81 79.82 M208.29 89.63 C211.14 86.35, 213.99 83.07, 216.81 79.82" stroke="#ffffff" stroke-width="1" fill="none"></path><path d="M0 0 C77.19 0, 154.38 0, 216.46 0 M0 0 C76.08 0, 152.15 0, 216.46 0 M216.46 0 C216.46 21.66, 216.46 43.32, 216.46 89.28 M216.46 0 C216.46 34.24, 216.46 68.47, 216.46 89.28 M216.46 89.28 C130.43 89.28, 44.4 89.28, 0 89.28 M216.46 89.28 C157.41 89.28, 98.35 89.28, 0 89.28 M0 89.28 C0 67.45, 0 45.62, 0 0 M0 89.28 C0 67.81, 0 46.35, 0 0" stroke="#000000" stroke-width="2" fill="none"></path></g><g transform="translate(578.8382873535156 493.54754740490245) rotate(0 84.375 28.799999999999983)"><text x="84.375" y="0" font-family="Cascadia, Segoe UI Emoji" font-size="16px" fill="#000000" text-anchor="middle" style="white-space: pre;" direction="ltr" dominant-baseline="text-before-edge">clone module from</text><text x="84.375" y="19.2" font-family="Cascadia, Segoe UI Emoji" font-size="16px" fill="#000000" text-anchor="middle" style="white-space: pre;" direction="ltr" dominant-baseline="text-before-edge">remote repo to</text><text x="84.375" y="38.4" font-family="Cascadia, Segoe UI Emoji" font-size="16px" fill="#000000" text-anchor="middle" style="white-space: pre;" direction="ltr" dominant-baseline="text-before-edge">local resource dir</text></g><g stroke-linecap="round"><g transform="translate(657.3174657881565 601.7366991986746) rotate(0 -0.07886410358622697 -18.347916442209765)"><path d="M0 0 C-0.05 -12.41, -0.11 -24.82, -0.16 -36.7 M0 0 C-0.06 -13.39, -0.12 -26.78, -0.16 -36.7" stroke="#000000" stroke-width="2" fill="none"></path></g><g transform="translate(657.3174657881565 601.7366991986746) rotate(0 -0.07886410358622697 -18.347916442209765)"><path d="M-0.16 -36.7 L6.24 -23.13 L-6.44 -23.07 L-0.16 -36.7" stroke="none" stroke-width="0" fill="#000000" fill-rule="evenodd"></path><path d="M-0.16 -36.7 C2.01 -32.11, 4.17 -27.52, 6.24 -23.13 M-0.16 -36.7 C2.18 -31.75, 4.51 -26.8, 6.24 -23.13 M6.24 -23.13 C2.63 -23.11, -0.97 -23.1, -6.44 -23.07 M6.24 -23.13 C3.28 -23.12, 0.33 -23.1, -6.44 -23.07 M-6.44 -23.07 C-4.01 -28.34, -1.58 -33.6, -0.16 -36.7 M-6.44 -23.07 C-4.42 -27.46, -2.39 -31.85, -0.16 -36.7 M-0.16 -36.7 C-0.16 -36.7, -0.16 -36.7, -0.16 -36.7 M-0.16 -36.7 C-0.16 -36.7, -0.16 -36.7, -0.16 -36.7" stroke="#000000" stroke-width="2" fill="none"></path></g></g><mask></mask><g stroke-linecap="round"><g transform="translate(657.6419125591885 475.1059153248243) rotate(0 -0.07671104350390578 -20.515129485753306)"><path d="M0 0 C-0.05 -12.58, -0.09 -25.17, -0.15 -41.03 M0 0 C-0.05 -13.41, -0.1 -26.82, -0.15 -41.03" stroke="#000000" stroke-width="2" fill="none"></path></g><g transform="translate(657.6419125591885 475.1059153248243) rotate(0 -0.07671104350390578 -20.515129485753306)"><path d="M-0.15 -41.03 L6.24 -27.46 L-6.44 -27.41 L-0.15 -41.03" stroke="none" stroke-width="0" fill="#000000" fill-rule="evenodd"></path><path d="M-0.15 -41.03 C1.81 -36.87, 3.77 -32.71, 6.24 -27.46 M-0.15 -41.03 C1.94 -36.59, 4.02 -32.16, 6.24 -27.46 M6.24 -27.46 C3.12 -27.45, 0 -27.44, -6.44 -27.41 M6.24 -27.46 C2.42 -27.45, -1.39 -27.43, -6.44 -27.41 M-6.44 -27.41 C-4.74 -31.1, -3.04 -34.78, -0.15 -41.03 M-6.44 -27.41 C-4.05 -32.6, -1.65 -37.78, -0.15 -41.03 M-0.15 -41.03 C-0.15 -41.03, -0.15 -41.03, -0.15 -41.03 M-0.15 -41.03 C-0.15 -41.03, -0.15 -41.03, -0.15 -41.03" stroke="#000000" stroke-width="2" fill="none"></path></g></g><mask></mask><g stroke-linecap="round"><g transform="translate(794.2882604658912 675.577336405706) rotate(0 -15.616095548898784 -0.23182757502226536)"><path d="M0 0 C-9.89 -0.15, -19.77 -0.29, -31.23 -0.46 M0 0 C-8.19 -0.12, -16.38 -0.24, -31.23 -0.46" stroke="#000000" stroke-width="2" fill="none"></path></g><g transform="translate(794.2882604658912 675.577336405706) rotate(0 -15.616095548898784 -0.23182757502226536)"><path d="M-31.23 -0.46 L-17.54 -6.6 L-17.73 6.08 L-31.23 -0.46" stroke="none" stroke-width="0" fill="#000000" fill-rule="evenodd"></path><path d="M-31.23 -0.46 C-26.9 -2.41, -22.57 -4.35, -17.54 -6.6 M-31.23 -0.46 C-27.64 -2.07, -24.06 -3.68, -17.54 -6.6 M-17.54 -6.6 C-17.58 -3.9, -17.63 -1.21, -17.73 6.08 M-17.54 -6.6 C-17.6 -2.76, -17.66 1.08, -17.73 6.08 M-17.73 6.08 C-22.51 3.76, -27.29 1.45, -31.23 -0.46 M-17.73 6.08 C-21.68 4.16, -25.63 2.25, -31.23 -0.46 M-31.23 -0.46 C-31.23 -0.46, -31.23 -0.46, -31.23 -0.46 M-31.23 -0.46 C-31.23 -0.46, -31.23 -0.46, -31.23 -0.46" stroke="#000000" stroke-width="2" fill="none"></path></g></g><mask></mask><g transform="translate(667.0020599365234 583.8650767017774) rotate(0 14.0625 9.599999999999994)"><text x="0" y="0" font-family="Cascadia, Segoe UI Emoji" font-size="16px" fill="#000000" text-anchor="start" style="white-space: pre;" direction="ltr" dominant-baseline="text-before-edge">Yes</text></g><g stroke-linecap="round"><g transform="translate(405.9341301518639 600.0445743807477) rotate(0 -50.87120602356697 33.75090634538577)"><path d="M0 0 C-29.04 19.27, -58.08 38.53, -101.74 67.5 M0 0 C-38 25.21, -76.01 50.43, -101.74 67.5" stroke="#000000" stroke-width="2" fill="none"></path></g></g><mask></mask><g stroke-linecap="round"><g transform="translate(408.03226357350877 598.0240445976891) rotate(0 52.909923763181496 37.03705537875575)"><path d="M0 0 C39.16 27.41, 78.32 54.83, 105.82 74.07 M0 0 C21.27 14.89, 42.54 29.78, 105.82 74.07" stroke="#000000" stroke-width="2" fill="none"></path></g></g><mask></mask><g stroke-linecap="round"><g transform="translate(303.0748603356751 668.8144199233543) rotate(0 52.909923763181496 37.03705537875575)"><path d="M0 0 C24.48 17.14, 48.97 34.28, 105.82 74.07 M0 0 C31.67 22.17, 63.35 44.34, 105.82 74.07" stroke="#000000" stroke-width="2" fill="none"></path></g></g><mask></mask><g stroke-linecap="round"><g transform="translate(511.51095745352586 673.8415199021598) rotate(0 -50.87120602356697 33.75090634538577)"><path d="M0 0 C-23.81 15.8, -47.62 31.6, -101.74 67.5 M0 0 C-25.96 17.22, -51.91 34.44, -101.74 67.5" stroke="#000000" stroke-width="2" fill="none"></path></g></g><mask></mask><g transform="translate(339.3004150390625 634.1427839362503) rotate(0 70.3125 28.80000000000001)"><text x="70.3125" y="0" font-family="Cascadia, Segoe UI Emoji" font-size="16px" fill="#000000" text-anchor="middle" style="white-space: pre;" direction="ltr" dominant-baseline="text-before-edge">pkg-info</text><text x="70.3125" y="19.2" font-family="Cascadia, Segoe UI Emoji" font-size="16px" fill="#000000" text-anchor="middle" style="white-space: pre;" direction="ltr" dominant-baseline="text-before-edge"> entry has</text><text x="70.3125" y="38.4" font-family="Cascadia, Segoe UI Emoji" font-size="16px" fill="#000000" text-anchor="middle" style="white-space: pre;" direction="ltr" dominant-baseline="text-before-edge">version attrib?</text></g><g stroke-linecap="round"><g transform="translate(408.8424157773776 595.2655090413942) rotate(0 0.04237772053778599 -81.34443806278827)"><path d="M0 0 C0.03 -55.3, 0.06 -110.61, 0.08 -162.69 M0 0 C0.03 -54.08, 0.06 -108.16, 0.08 -162.69" stroke="#000000" stroke-width="2" fill="none"></path></g><g transform="translate(408.8424157773776 595.2655090413942) rotate(0 0.04237772053778599 -81.34443806278827)"><path d="M0.08 -162.69 L6.42 -149.09 L-6.26 -149.1 L0.08 -162.69" stroke="none" stroke-width="0" fill="#000000" fill-rule="evenodd"></path><path d="M0.08 -162.69 C2.24 -158.07, 4.39 -153.44, 6.42 -149.09 M0.08 -162.69 C2.19 -158.17, 4.29 -153.65, 6.42 -149.09 M6.42 -149.09 C1.76 -149.09, -2.9 -149.1, -6.26 -149.1 M6.42 -149.09 C3.21 -149.09, 0.01 -149.09, -6.26 -149.1 M-6.26 -149.1 C-4.17 -153.58, -2.07 -158.07, 0.08 -162.69 M-6.26 -149.1 C-4.93 -151.96, -3.59 -154.81, 0.08 -162.69 M0.08 -162.69 C0.08 -162.69, 0.08 -162.69, 0.08 -162.69 M0.08 -162.69 C0.08 -162.69, 0.08 -162.69, 0.08 -162.69" stroke="#000000" stroke-width="2" fill="none"></path></g></g><mask></mask><g transform="translate(417.87254333496094 578.9231821705274) rotate(0 9.375 9.599999999999994)"><text x="0" y="0" font-family="Cascadia, Segoe UI Emoji" font-size="16px" fill="#000000" text-anchor="start" style="white-space: pre;" direction="ltr" dominant-baseline="text-before-edge">No</text></g><g stroke-linecap="round"><g transform="translate(554.2764196455785 672.6814013471122) rotate(0 -20.389685636789352 -0.018479186350390364)"><path d="M0 0 C-8.93 -0.01, -17.86 -0.02, -40.78 -0.04 M0 0 C-16.23 -0.01, -32.47 -0.03, -40.78 -0.04" stroke="#000000" stroke-width="2" fill="none"></path></g><g transform="translate(554.2764196455785 672.6814013471122) rotate(0 -20.389685636789352 -0.018479186350390364)"><path d="M-40.78 -0.04 L-27.18 -6.36 L-27.19 6.31 L-40.78 -0.04" stroke="none" stroke-width="0" fill="#000000" fill-rule="evenodd"></path><path d="M-40.78 -0.04 C-37.8 -1.42, -34.82 -2.81, -27.18 -6.36 M-40.78 -0.04 C-35.37 -2.56, -29.95 -5.07, -27.18 -6.36 M-27.18 -6.36 C-27.18 -2.13, -27.19 2.11, -27.19 6.31 M-27.18 -6.36 C-27.18 -2.4, -27.19 1.56, -27.19 6.31 M-27.19 6.31 C-32.62 3.78, -38.05 1.24, -40.78 -0.04 M-27.19 6.31 C-31.25 4.42, -35.31 2.52, -40.78 -0.04 M-40.78 -0.04 C-40.78 -0.04, -40.78 -0.04, -40.78 -0.04 M-40.78 -0.04 C-40.78 -0.04, -40.78 -0.04, -40.78 -0.04" stroke="#000000" stroke-width="2" fill="none"></path></g></g><mask></mask><g transform="translate(532.7429656982422 646.2688242603712) rotate(0 9.375 9.599999999999994)"><text x="0" y="0" font-family="Cascadia, Segoe UI Emoji" font-size="16px" fill="#000000" text-anchor="start" style="white-space: pre;" direction="ltr" dominant-baseline="text-before-edge">No</text></g><g stroke-linecap="round" transform="translate(10 472.7438242603712) rotate(0 108.23060607910156 44.639190673828125)"><path d="M0 0 C0 0, 0 0, 0 0 M0 0 C0 0, 0 0, 0 0 M0.13 12.04 C2.7 9.09, 5.26 6.14, 10.63 -0.03 M0.13 12.04 C3.37 8.31, 6.62 4.58, 10.63 -0.03 M0.27 24.08 C4.63 19.07, 8.99 14.05, 21.26 -0.07 M0.27 24.08 C8.6 14.49, 16.94 4.9, 21.26 -0.07 M-0.26 36.88 C9.59 25.55, 19.43 14.23, 31.89 -0.1 M-0.26 36.88 C8.3 27.04, 16.85 17.2, 31.89 -0.1 M-0.12 48.92 C15.47 30.98, 31.06 13.05, 42.52 -0.14 M-0.12 48.92 C14.72 31.84, 29.57 14.76, 42.52 -0.14 M0.01 60.96 C14.93 43.8, 29.84 26.64, 53.15 -0.17 M0.01 60.96 C14.55 44.23, 29.09 27.51, 53.15 -0.17 M0.14 73 C13.26 57.9, 26.39 42.81, 63.78 -0.21 M0.14 73 C14.78 56.16, 29.42 39.32, 63.78 -0.21 M0.28 85.04 C18.61 63.95, 36.95 42.85, 74.41 -0.24 M0.28 85.04 C16.72 66.13, 33.16 47.21, 74.41 -0.24 M6.97 89.53 C26.52 67.04, 46.08 44.55, 85.04 -0.28 M6.97 89.53 C24.86 68.95, 42.75 48.37, 85.04 -0.28 M17.6 89.5 C40.52 63.13, 63.44 36.76, 95.67 -0.31 M17.6 89.5 C38.53 65.43, 59.45 41.35, 95.67 -0.31 M28.23 89.47 C49.87 64.57, 71.52 39.67, 106.3 -0.34 M28.23 89.47 C55.48 58.12, 82.73 26.77, 106.3 -0.34 M38.86 89.43 C55.48 70.31, 72.11 51.19, 116.27 0.38 M38.86 89.43 C64.95 59.41, 91.05 29.39, 116.27 0.38 M49.49 89.4 C66.76 69.52, 84.04 49.65, 126.91 0.34 M49.49 89.4 C73.53 61.74, 97.57 34.09, 126.91 0.34 M60.12 89.36 C76.67 70.33, 93.21 51.29, 137.54 0.31 M60.12 89.36 C77.21 69.7, 94.3 50.04, 137.54 0.31 M70.75 89.33 C92.63 64.15, 114.52 38.98, 148.17 0.27 M70.75 89.33 C90.22 66.93, 109.69 44.53, 148.17 0.27 M81.38 89.29 C96.98 71.35, 112.58 53.4, 158.8 0.24 M81.38 89.29 C102.91 64.52, 124.44 39.75, 158.8 0.24 M92.01 89.26 C108.12 70.73, 124.23 52.2, 169.43 0.2 M92.01 89.26 C109.6 69.03, 127.18 48.8, 169.43 0.2 M102.64 89.22 C125.61 62.8, 148.59 36.37, 180.06 0.17 M102.64 89.22 C128.61 59.35, 154.58 29.47, 180.06 0.17 M113.27 89.19 C129.48 70.54, 145.7 51.89, 190.69 0.13 M113.27 89.19 C137.26 61.6, 161.24 34.01, 190.69 0.13 M123.24 89.91 C148.69 60.64, 174.13 31.37, 201.32 0.1 M123.24 89.91 C153.39 55.23, 183.54 20.54, 201.32 0.1 M133.87 89.88 C153.75 67.01, 173.63 44.14, 211.95 0.06 M133.87 89.88 C156.44 63.92, 179.01 37.96, 211.95 0.06 M144.5 89.84 C167.84 63, 191.17 36.16, 216.67 6.82 M144.5 89.84 C165.5 65.69, 186.49 41.54, 216.67 6.82 M155.13 89.81 C177.92 63.6, 200.7 37.39, 216.8 18.86 M155.13 89.81 C178.05 63.45, 200.96 37.09, 216.8 18.86 M165.76 89.77 C177.59 76.17, 189.41 62.57, 216.94 30.9 M165.76 89.77 C179.96 73.44, 194.16 57.11, 216.94 30.9 M176.4 89.74 C190.11 73.96, 203.83 58.17, 217.07 42.95 M176.4 89.74 C187.83 76.58, 199.27 63.43, 217.07 42.95 M187.03 89.7 C199.07 75.85, 211.11 62, 217.2 54.99 M187.03 89.7 C194.29 81.34, 201.56 72.99, 217.2 54.99 M197.66 89.67 C205.26 80.92, 212.86 72.18, 216.68 67.78 M197.66 89.67 C204.49 81.81, 211.32 73.95, 216.68 67.78 M208.29 89.63 C210.72 86.84, 213.15 84.04, 216.81 79.82 M208.29 89.63 C210.36 87.25, 212.43 84.86, 216.81 79.82" stroke="#ffffff" stroke-width="1" fill="none"></path><path d="M0 0 C83.71 0, 167.41 0, 216.46 0 M0 0 C48.12 0, 96.23 0, 216.46 0 M216.46 0 C216.46 33.82, 216.46 67.64, 216.46 89.28 M216.46 0 C216.46 28.55, 216.46 57.11, 216.46 89.28 M216.46 89.28 C141.85 89.28, 67.23 89.28, 0 89.28 M216.46 89.28 C167.21 89.28, 117.95 89.28, 0 89.28 M0 89.28 C0 60.43, 0 31.57, 0 0 M0 89.28 C0 64.4, 0 39.52, 0 0" stroke="#000000" stroke-width="2" fill="none"></path></g><g transform="translate(25.04852294921875 483.1854563404493) rotate(0 93.75 28.799999999999983)"><text x="93.75" y="0" font-family="Cascadia, Segoe UI Emoji" font-size="16px" fill="#000000" text-anchor="middle" style="white-space: pre;" direction="ltr" dominant-baseline="text-before-edge">Query ModuleCatalogs</text><text x="93.75" y="19.2" font-family="Cascadia, Segoe UI Emoji" font-size="16px" fill="#000000" text-anchor="middle" style="white-space: pre;" direction="ltr" dominant-baseline="text-before-edge">in order, with</text><text x="93.75" y="38.4" font-family="Cascadia, Segoe UI Emoji" font-size="16px" fill="#000000" text-anchor="middle" style="white-space: pre;" direction="ltr" dominant-baseline="text-before-edge">version requirement</text></g><g stroke-linecap="round"><g transform="translate(267.26697780560687 517.4891583387374) rotate(0 -20.016439847148092 -0.5225877072287517)"><path d="M0 0 C-14.04 -0.37, -28.08 -0.73, -40.03 -1.05 M0 0 C-9.85 -0.26, -19.7 -0.51, -40.03 -1.05" stroke="#000000" stroke-width="2" fill="none"></path></g><g transform="translate(267.26697780560687 517.4891583387374) rotate(0 -20.016439847148092 -0.5225877072287517)"><path d="M-40.03 -1.05 L-26.28 -7.03 L-26.61 5.65 L-40.03 -1.05" stroke="none" stroke-width="0" fill="#000000" fill-rule="evenodd"></path><path d="M-40.03 -1.05 C-35.21 -3.14, -30.38 -5.24, -26.28 -7.03 M-40.03 -1.05 C-36.65 -2.52, -33.26 -3.99, -26.28 -7.03 M-26.28 -7.03 C-26.39 -2.64, -26.51 1.74, -26.61 5.65 M-26.28 -7.03 C-26.35 -4.32, -26.42 -1.62, -26.61 5.65 M-26.61 5.65 C-31.12 3.4, -35.63 1.15, -40.03 -1.05 M-26.61 5.65 C-29.97 3.97, -33.33 2.3, -40.03 -1.05 M-40.03 -1.05 C-40.03 -1.05, -40.03 -1.05, -40.03 -1.05 M-40.03 -1.05 C-40.03 -1.05, -40.03 -1.05, -40.03 -1.05" stroke="#000000" stroke-width="2" fill="none"></path></g></g><mask></mask><g stroke-linecap="round"><g transform="translate(265.0464244298186 670.617852869355) rotate(0 -0.08880365752494868 -144.09817314229144)"><path d="M0 0 C-0.05 -73.52, -0.09 -147.03, -0.18 -288.2 M0 0 C-0.06 -91.73, -0.11 -183.45, -0.18 -288.2" stroke="#000000" stroke-width="2" fill="none"></path></g></g><mask></mask><g stroke-linecap="round"><g transform="translate(305.17345237206587 670.5243888368832) rotate(0 -19.08345651663467 -0.00013833650933747776)"><path d="M0 0 C-14.72 0, -29.45 0, -38.17 0 M0 0 C-11.27 0, -22.53 0, -38.17 0" stroke="#000000" stroke-width="2" fill="none"></path></g></g><mask></mask><g transform="translate(276.8223114013672 642.7691904713087) rotate(0 14.0625 9.599999999999994)"><text x="0" y="0" font-family="Cascadia, Segoe UI Emoji" font-size="16px" fill="#000000" text-anchor="start" style="white-space: pre;" direction="ltr" dominant-baseline="text-before-edge">Yes</text></g><g stroke-linecap="round" transform="translate(10.87188720703125 629.5236399341993) rotate(0 108.23060607910156 44.809783935546875)"><path d="M2.85 9.1 C2.85 9.1, 2.85 9.1, 2.85 9.1 M2.85 9.1 C2.85 9.1, 2.85 9.1, 2.85 9.1 M1.01 23.41 C6.55 17.04, 12.08 10.67, 20.69 0.76 M1.01 23.41 C6.56 17.02, 12.11 10.64, 20.69 0.76 M0.49 36.2 C9.14 26.25, 17.79 16.3, 31.98 -0.03 M0.49 36.2 C11.96 23.01, 23.43 9.81, 31.98 -0.03 M0.62 48.24 C13.79 33.09, 26.96 17.94, 42.61 -0.06 M0.62 48.24 C15.42 31.22, 30.21 14.2, 42.61 -0.06 M0.76 60.28 C11.81 47.57, 22.86 34.86, 53.24 -0.09 M0.76 60.28 C13.95 45.1, 27.15 29.93, 53.24 -0.09 M0.89 72.32 C24.72 44.91, 48.55 17.49, 63.87 -0.13 M0.89 72.32 C15.55 55.46, 30.2 38.6, 63.87 -0.13 M3.65 81.35 C19.33 63.3, 35.01 45.26, 74.5 -0.16 M3.65 81.35 C31.56 49.24, 59.47 17.13, 74.5 -0.16 M9.03 87.35 C26.17 67.63, 43.31 47.91, 85.13 -0.2 M9.03 87.35 C25.62 68.27, 42.2 49.18, 85.13 -0.2 M17.69 89.58 C44.89 58.29, 72.09 27, 95.76 -0.23 M17.69 89.58 C43.67 59.69, 69.65 29.81, 95.76 -0.23 M28.32 89.54 C52.47 61.76, 76.63 33.97, 105.74 0.49 M28.32 89.54 C56.99 56.56, 85.66 23.58, 105.74 0.49 M38.29 90.26 C68.81 55.16, 99.33 20.05, 116.37 0.45 M38.29 90.26 C63.77 60.96, 89.24 31.66, 116.37 0.45 M48.92 90.23 C72.67 62.91, 96.42 35.59, 127 0.42 M48.92 90.23 C66.04 70.54, 83.15 50.86, 127 0.42 M59.55 90.2 C75.62 71.71, 91.69 53.22, 137.63 0.38 M59.55 90.2 C79.07 67.75, 98.58 45.3, 137.63 0.38 M70.18 90.16 C99.48 56.46, 128.77 22.76, 148.26 0.35 M70.18 90.16 C90.57 66.71, 110.95 43.27, 148.26 0.35 M80.81 90.13 C97.05 71.45, 113.28 52.78, 158.89 0.32 M80.81 90.13 C103.95 63.51, 127.08 36.9, 158.89 0.32 M91.44 90.09 C115.35 62.59, 139.26 35.09, 169.52 0.28 M91.44 90.09 C111.72 66.76, 132 43.44, 169.52 0.28 M102.07 90.06 C123.13 65.83, 144.19 41.61, 180.15 0.25 M102.07 90.06 C123.57 65.33, 145.06 40.6, 180.15 0.25 M112.7 90.02 C142.85 55.34, 173 20.66, 190.78 0.21 M112.7 90.02 C139.73 58.94, 166.75 27.85, 190.78 0.21 M123.33 89.99 C140.5 70.24, 157.66 50.5, 200.75 0.93 M123.33 89.99 C147.64 62.03, 171.94 34.07, 200.75 0.93 M133.96 89.95 C157.29 63.12, 180.62 36.29, 208.76 3.92 M133.96 89.95 C157.78 62.56, 181.59 35.17, 208.76 3.92 M144.6 89.92 C169.08 61.76, 193.56 33.6, 214.14 9.92 M144.6 89.92 C169.38 61.41, 194.17 32.89, 214.14 9.92 M155.23 89.88 C172.99 69.45, 190.75 49.02, 216.89 18.94 M155.23 89.88 C176.3 65.64, 197.38 41.4, 216.89 18.94 M165.86 89.85 C181.55 71.79, 197.25 53.74, 217.03 30.98 M165.86 89.85 C179.37 74.3, 192.89 58.75, 217.03 30.98 M176.49 89.82 C189.78 74.52, 203.08 59.22, 217.16 43.02 M176.49 89.82 C186.6 78.18, 196.72 66.54, 217.16 43.02 M187.12 89.78 C198.62 76.55, 210.12 63.32, 216.64 55.82 M187.12 89.78 C196.44 79.06, 205.75 68.34, 216.64 55.82 M197.75 89.75 C204.38 82.11, 211.02 74.47, 216.77 67.86 M197.75 89.75 C202.29 84.51, 206.84 79.28, 216.77 67.86" stroke="#ffffff" stroke-width="1" fill="none"></path><path d="M22.4 0 C86.13 0, 149.86 0, 194.06 0 M22.4 0 C66.1 0, 109.8 0, 194.06 0 M194.06 0 C208.99 0, 216.46 7.47, 216.46 22.4 M194.06 0 C208.99 0, 216.46 7.47, 216.46 22.4 M216.46 22.4 C216.46 37.29, 216.46 52.18, 216.46 67.21 M216.46 22.4 C216.46 32.02, 216.46 41.64, 216.46 67.21 M216.46 67.21 C216.46 82.15, 208.99 89.62, 194.06 89.62 M216.46 67.21 C216.46 82.15, 208.99 89.62, 194.06 89.62 M194.06 89.62 C143.02 89.62, 91.98 89.62, 22.4 89.62 M194.06 89.62 C143.43 89.62, 92.8 89.62, 22.4 89.62 M22.4 89.62 C7.47 89.62, 0 82.15, 0 67.21 M22.4 89.62 C7.47 89.62, 0 82.15, 0 67.21 M0 67.21 C0 51.45, 0 35.68, 0 22.4 M0 67.21 C0 57.91, 0 48.6, 0 22.4 M0 22.4 C0 7.47, 7.47 0, 22.4 0 M0 22.4 C0 7.47, 7.47 0, 22.4 0" stroke="#000000" stroke-width="2" fill="none"></path></g><g transform="translate(24.062973022460938 635.8642954517775) rotate(0 93.75 38.400000000000006)"><text x="93.75" y="0" font-family="Cascadia, Segoe UI Emoji" font-size="16px" fill="#000000" text-anchor="middle" style="white-space: pre;" direction="ltr" dominant-baseline="text-before-edge">Load &amp; import module</text><text x="93.75" y="19.2" font-family="Cascadia, Segoe UI Emoji" font-size="16px" fill="#000000" text-anchor="middle" style="white-space: pre;" direction="ltr" dominant-baseline="text-before-edge">from first catalog</text><text x="93.75" y="38.4" font-family="Cascadia, Segoe UI Emoji" font-size="16px" fill="#000000" text-anchor="middle" style="white-space: pre;" direction="ltr" dominant-baseline="text-before-edge">that reports a</text><text x="93.75" y="57.599999999999994" font-family="Cascadia, Segoe UI Emoji" font-size="16px" fill="#000000" text-anchor="middle" style="white-space: pre;" direction="ltr" dominant-baseline="text-before-edge">successful match</text></g><g stroke-linecap="round"><g transform="translate(122.06198815996623 563.2661983803389) rotate(0 -0.043522099376332335 30.99294570425107)"><path d="M0 0 C-0.03 24.44, -0.07 48.88, -0.09 61.99 M0 0 C-0.02 15.61, -0.04 31.22, -0.09 61.99" stroke="#000000" stroke-width="2" fill="none"></path></g><g transform="translate(122.06198815996623 563.2661983803389) rotate(0 -0.043522099376332335 30.99294570425107)"><path d="M-0.09 61.99 L-6.41 48.38 L6.27 48.4 L-0.09 61.99" stroke="none" stroke-width="0" fill="#000000" fill-rule="evenodd"></path><path d="M-0.09 61.99 C-2.58 56.62, -5.07 51.26, -6.41 48.38 M-0.09 61.99 C-1.68 58.56, -3.27 55.13, -6.41 48.38 M-6.41 48.38 C-2.52 48.39, 1.36 48.39, 6.27 48.4 M-6.41 48.38 C-1.66 48.39, 3.08 48.4, 6.27 48.4 M6.27 48.4 C4.99 51.13, 3.72 53.86, -0.09 61.99 M6.27 48.4 C3.8 53.67, 1.33 58.95, -0.09 61.99 M-0.09 61.99 C-0.09 61.99, -0.09 61.99, -0.09 61.99 M-0.09 61.99 C-0.09 61.99, -0.09 61.99, -0.09 61.99" stroke="#000000" stroke-width="2" fill="none"></path></g></g><mask></mask><g stroke-linecap="round"><g transform="translate(119.53270242110261 145.25177626722788) rotate(0 -50.871206023566955 33.75090634538577)"><path d="M0 0 C-20.53 13.62, -41.06 27.24, -101.74 67.5 M0 0 C-26.97 17.89, -53.94 35.79, -101.74 67.5" stroke="#000000" stroke-width="2" fill="none"></path></g></g><mask></mask><g stroke-linecap="round"><g transform="translate(121.6308358427475 143.23124648416925) rotate(0 52.909923763181524 37.03705537875576)"><path d="M0 0 C26.92 18.84, 53.84 37.68, 105.82 74.07 M0 0 C35.25 24.67, 70.49 49.34, 105.82 74.07" stroke="#000000" stroke-width="2" fill="none"></path></g></g><mask></mask><g stroke-linecap="round"><g transform="translate(16.67343260491407 214.02162180983444) rotate(0 52.909923763181524 37.03705537875576)"><path d="M0 0 C22.21 15.54, 44.41 31.09, 105.82 74.07 M0 0 C27.28 19.1, 54.56 38.19, 105.82 74.07" stroke="#000000" stroke-width="2" fill="none"></path></g></g><mask></mask><g stroke-linecap="round"><g transform="translate(225.1095297227647 219.04872178864) rotate(0 -50.87120602356697 33.75090634538577)"><path d="M0 0 C-29.06 19.28, -58.12 38.56, -101.74 67.5 M0 0 C-31.65 21, -63.3 42, -101.74 67.5" stroke="#000000" stroke-width="2" fill="none"></path></g></g><mask></mask><g transform="translate(57.58648730830146 169.34998582273047) rotate(0 65.625 48)"><text x="65.625" y="0" font-family="Cascadia, Segoe UI Emoji" font-size="16px" fill="#000000" text-anchor="middle" style="white-space: pre;" direction="ltr" dominant-baseline="text-before-edge">Module</text><text x="65.625" y="19.2" font-family="Cascadia, Segoe UI Emoji" font-size="16px" fill="#000000" text-anchor="middle" style="white-space: pre;" direction="ltr" dominant-baseline="text-before-edge">already loaded</text><text x="65.625" y="38.4" font-family="Cascadia, Segoe UI Emoji" font-size="16px" fill="#000000" text-anchor="middle" style="white-space: pre;" direction="ltr" dominant-baseline="text-before-edge">in appropriate</text><text x="65.625" y="57.599999999999994" font-family="Cascadia, Segoe UI Emoji" font-size="16px" fill="#000000" text-anchor="middle" style="white-space: pre;" direction="ltr" dominant-baseline="text-before-edge">context in</text><text x="65.625" y="76.8" font-family="Cascadia, Segoe UI Emoji" font-size="16px" fill="#000000" text-anchor="middle" style="white-space: pre;" direction="ltr" dominant-baseline="text-before-edge">Runner?</text></g><g transform="translate(227.32318164423896 189.27786668210544) rotate(0 9.375 9.600000000000001)"><text x="0" y="0" font-family="Cascadia, Segoe UI Emoji" font-size="16px" fill="#000000" text-anchor="start" style="white-space: pre;" direction="ltr" dominant-baseline="text-before-edge">No</text></g><g transform="translate(131.91130096825464 290.7713401337419) rotate(0 14.0625 19.200000000000003)"><text x="0" y="0" font-family="Cascadia, Segoe UI Emoji" font-size="16px" fill="#000000" text-anchor="start" style="white-space: pre;" direction="ltr" dominant-baseline="text-before-edge">Yes</text><text x="0" y="19.2" font-family="Cascadia, Segoe UI Emoji" font-size="16px" fill="#000000" text-anchor="start" style="white-space: pre;" direction="ltr" dominant-baseline="text-before-edge"></text></g><g stroke-linecap="round"><g transform="translate(122.01811831762268 287.9765841122066) rotate(0 0.1048497538617994 19.022974158063057)"><path d="M0 0 C0.06 11.03, 0.12 22.07, 0.21 38.05 M0 0 C0.08 14.4, 0.16 28.8, 0.21 38.05" stroke="#000000" stroke-width="2" fill="none"></path></g><g transform="translate(122.01811831762268 287.9765841122066) rotate(0 0.1048497538617994 19.022974158063057)"><path d="M0.21 38.05 L-6.2 24.49 L6.47 24.42 L0.21 38.05" stroke="none" stroke-width="0" fill="#000000" fill-rule="evenodd"></path><path d="M0.21 38.05 C-1.65 34.11, -3.51 30.18, -6.2 24.49 M0.21 38.05 C-2.22 32.91, -4.65 27.78, -6.2 24.49 M-6.2 24.49 C-1.49 24.46, 3.22 24.43, 6.47 24.42 M-6.2 24.49 C-1.7 24.46, 2.8 24.44, 6.47 24.42 M6.47 24.42 C3.97 29.86, 1.47 35.3, 0.21 38.05 M6.47 24.42 C4.38 28.97, 2.28 33.53, 0.21 38.05 M0.21 38.05 C0.21 38.05, 0.21 38.05, 0.21 38.05 M0.21 38.05 C0.21 38.05, 0.21 38.05, 0.21 38.05" stroke="#000000" stroke-width="2" fill="none"></path></g></g><mask></mask><g stroke-linecap="round"><g transform="translate(301.98951210686937 382.9831944861864) rotate(0 -18.818964734151507 0.773754909713773)"><path d="M0 0 C-7.97 0.33, -15.94 0.66, -37.64 1.55 M0 0 C-12.36 0.51, -24.73 1.02, -37.64 1.55" stroke="#000000" stroke-width="2" fill="none"></path></g></g><mask></mask><g stroke-linecap="round" transform="translate(10.537905091047037 333.3946881800133) rotate(0 108.23060607910156 44.809783935546875)"><path d="M2.85 9.1 C2.85 9.1, 2.85 9.1, 2.85 9.1 M2.85 9.1 C2.85 9.1, 2.85 9.1, 2.85 9.1 M1.01 23.41 C5.49 18.26, 9.96 13.11, 20.69 0.76 M1.01 23.41 C7.47 15.98, 13.93 8.54, 20.69 0.76 M0.49 36.2 C12.03 22.93, 23.56 9.66, 31.98 -0.03 M0.49 36.2 C6.94 28.78, 13.39 21.36, 31.98 -0.03 M0.62 48.24 C14.2 32.62, 27.78 17, 42.61 -0.06 M0.62 48.24 C11.86 35.32, 23.09 22.4, 42.61 -0.06 M0.76 60.28 C15.63 43.17, 30.51 26.05, 53.24 -0.09 M0.76 60.28 C11.93 47.43, 23.1 34.57, 53.24 -0.09 M0.89 72.32 C23.05 46.83, 45.21 21.34, 63.87 -0.13 M0.89 72.32 C20.56 49.69, 40.23 27.07, 63.87 -0.13 M3.65 81.35 C20.58 61.87, 37.51 42.39, 74.5 -0.16 M3.65 81.35 C30.4 50.57, 57.15 19.8, 74.5 -0.16 M9.03 87.35 C27.64 65.94, 46.25 44.53, 85.13 -0.2 M9.03 87.35 C26.25 67.54, 43.47 47.72, 85.13 -0.2 M17.69 89.58 C44.39 58.86, 71.1 28.14, 95.76 -0.23 M17.69 89.58 C37.04 67.32, 56.39 45.06, 95.76 -0.23 M28.32 89.54 C56.43 57.21, 84.54 24.87, 105.74 0.49 M28.32 89.54 C49.11 65.62, 69.91 41.7, 105.74 0.49 M38.29 90.26 C60.29 64.96, 82.28 39.67, 116.37 0.45 M38.29 90.26 C63.12 61.71, 87.94 33.15, 116.37 0.45 M48.92 90.23 C80.06 54.41, 111.19 18.6, 127 0.42 M48.92 90.23 C71.85 63.86, 94.77 37.48, 127 0.42 M59.55 90.2 C77.24 69.85, 94.92 49.51, 137.63 0.38 M59.55 90.2 C85.12 60.78, 110.69 31.37, 137.63 0.38 M70.18 90.16 C91.47 65.68, 112.75 41.19, 148.26 0.35 M70.18 90.16 C89.79 67.61, 109.4 45.05, 148.26 0.35 M80.81 90.13 C106.17 60.95, 131.53 31.78, 158.89 0.32 M80.81 90.13 C109.03 57.67, 137.24 25.21, 158.89 0.32 M91.44 90.09 C109.81 68.97, 128.17 47.84, 169.52 0.28 M91.44 90.09 C113.78 64.39, 136.12 38.69, 169.52 0.28 M102.07 90.06 C118.05 71.68, 134.03 53.3, 180.15 0.25 M102.07 90.06 C129.38 58.64, 156.69 27.23, 180.15 0.25 M112.7 90.02 C141.35 57.07, 170 24.11, 190.78 0.21 M112.7 90.02 C131.36 68.56, 150.02 47.09, 190.78 0.21 M123.33 89.99 C144.52 65.62, 165.7 41.25, 200.75 0.93 M123.33 89.99 C151.84 57.19, 180.35 24.4, 200.75 0.93 M133.96 89.95 C154.75 66.05, 175.53 42.14, 208.76 3.92 M133.96 89.95 C159.8 60.24, 185.63 30.52, 208.76 3.92 M144.6 89.92 C159.84 72.39, 175.08 54.85, 214.14 9.92 M144.6 89.92 C168.07 62.92, 191.54 35.91, 214.14 9.92 M155.23 89.88 C168.03 75.15, 180.84 60.42, 216.89 18.94 M155.23 89.88 C175.97 66.03, 196.71 42.17, 216.89 18.94 M165.86 89.85 C181.63 71.7, 197.41 53.55, 217.03 30.98 M165.86 89.85 C182.43 70.79, 199 51.72, 217.03 30.98 M176.49 89.82 C189.73 74.57, 202.98 59.33, 217.16 43.02 M176.49 89.82 C190.24 74, 203.99 58.18, 217.16 43.02 M187.12 89.78 C195.62 80, 204.12 70.22, 216.64 55.82 M187.12 89.78 C194.16 81.68, 201.2 73.58, 216.64 55.82 M197.75 89.75 C202.14 84.69, 206.54 79.63, 216.77 67.86 M197.75 89.75 C204.83 81.6, 211.91 73.46, 216.77 67.86" stroke="#ffffff" stroke-width="1" fill="none"></path><path d="M22.4 0 C58.98 0, 95.55 0, 194.06 0 M22.4 0 C87.18 0, 151.96 0, 194.06 0 M194.06 0 C208.99 0, 216.46 7.47, 216.46 22.4 M194.06 0 C208.99 0, 216.46 7.47, 216.46 22.4 M216.46 22.4 C216.46 34.55, 216.46 46.69, 216.46 67.21 M216.46 22.4 C216.46 36.65, 216.46 50.89, 216.46 67.21 M216.46 67.21 C216.46 82.15, 208.99 89.62, 194.06 89.62 M216.46 67.21 C216.46 82.15, 208.99 89.62, 194.06 89.62 M194.06 89.62 C156.14 89.62, 118.22 89.62, 22.4 89.62 M194.06 89.62 C136.4 89.62, 78.74 89.62, 22.4 89.62 M22.4 89.62 C7.47 89.62, 0 82.15, 0 67.21 M22.4 89.62 C7.47 89.62, 0 82.15, 0 67.21 M0 67.21 C0 57.94, 0 48.67, 0 22.4 M0 67.21 C0 53.93, 0 40.65, 0 22.4 M0 22.4 C0 7.47, 7.47 0, 22.4 0 M0 22.4 C0 7.47, 7.47 0, 22.4 0" stroke="#000000" stroke-width="2" fill="none"></path></g><g transform="translate(47.166490906476724 360.16935383305923) rotate(0 70.3125 19.200000000000003)"><text x="70.3125" y="0" font-family="Cascadia, Segoe UI Emoji" font-size="16px" fill="#000000" text-anchor="middle" style="white-space: pre;" direction="ltr" dominant-baseline="text-before-edge">Import existing</text><text x="70.3125" y="19.2" font-family="Cascadia, Segoe UI Emoji" font-size="16px" fill="#000000" text-anchor="middle" style="white-space: pre;" direction="ltr" dominant-baseline="text-before-edge">loaded module</text></g><g stroke-linecap="round"><g transform="translate(122.96231417468869 97.72406408832211) rotate(0 -0.319593855195194 24.664576803605115)"><path d="M0 0 C-0.25 19.45, -0.5 38.9, -0.64 49.33 M0 0 C-0.23 17.66, -0.46 35.32, -0.64 49.33" stroke="#000000" stroke-width="2" fill="none"></path></g><g transform="translate(122.96231417468869 97.72406408832211) rotate(0 -0.319593855195194 24.664576803605115)"><path d="M-0.64 49.33 L-6.8 35.65 L5.88 35.82 L-0.64 49.33" stroke="none" stroke-width="0" fill="#000000" fill-rule="evenodd"></path><path d="M-0.64 49.33 C-3.07 43.94, -5.5 38.54, -6.8 35.65 M-0.64 49.33 C-2.85 44.43, -5.05 39.54, -6.8 35.65 M-6.8 35.65 C-2.02 35.72, 2.76 35.78, 5.88 35.82 M-6.8 35.65 C-3.57 35.7, -0.34 35.74, 5.88 35.82 M5.88 35.82 C3.66 40.41, 1.45 45, -0.64 49.33 M5.88 35.82 C4.31 39.07, 2.74 42.32, -0.64 49.33 M-0.64 49.33 C-0.64 49.33, -0.64 49.33, -0.64 49.33 M-0.64 49.33 C-0.64 49.33, -0.64 49.33, -0.64 49.33" stroke="#000000" stroke-width="2" fill="none"></path></g></g><mask></mask></svg>